<?xml version="1.0" encoding="utf-8" standalone="no"?>
<!DOCTYPE svg PUBLIC "-//W3C//DTD SVG 1.1//EN"
  "http://www.w3.org/Graphics/SVG/1.1/DTD/svg11.dtd">
<svg xmlns:xlink="http://www.w3.org/1999/xlink" width="496.8pt" height="307.039286pt" viewBox="0 0 496.8 307.039286" xmlns="http://www.w3.org/2000/svg" version="1.1">
 <metadata>
  <rdf:RDF xmlns:dc="http://purl.org/dc/elements/1.1/" xmlns:cc="http://creativecommons.org/ns#" xmlns:rdf="http://www.w3.org/1999/02/22-rdf-syntax-ns#">
   <cc:Work>
    <dc:type rdf:resource="http://purl.org/dc/dcmitype/StillImage"/>
    <dc:date>2025-04-10T10:57:19.801102</dc:date>
    <dc:format>image/svg+xml</dc:format>
    <dc:creator>
     <cc:Agent>
      <dc:title>Matplotlib v3.10.1, https://matplotlib.org/</dc:title>
     </cc:Agent>
    </dc:creator>
   </cc:Work>
  </rdf:RDF>
 </metadata>
 <defs>
  <style type="text/css">*{stroke-linejoin: round; stroke-linecap: butt}</style>
 </defs>
 <g id="figure_1">
  <g id="patch_1">
   <path d="M 0 307.039286 
L 496.8 307.039286 
L 496.8 0 
L 0 0 
z
" style="fill: #ffffff"/>
  </g>
  <g id="axes_1">
   <g id="patch_2">
    <path d="M 62.1 273.264964 
L 447.12 273.264964 
L 447.12 36.844714 
L 62.1 36.844714 
z
" style="fill: #ffffff"/>
   </g>
   <g id="PathCollection_1">
    <defs>
     <path id="m5f292cbeab" d="M 0 3 
C 0.795609 3 1.55874 2.683901 2.12132 2.12132 
C 2.683901 1.55874 3 0.795609 3 0 
C 3 -0.795609 2.683901 -1.55874 2.12132 -2.12132 
C 1.55874 -2.683901 0.795609 -3 0 -3 
C -0.795609 -3 -1.55874 -2.683901 -2.12132 -2.12132 
C -2.683901 -1.55874 -3 -0.795609 -3 0 
C -3 0.795609 -2.683901 1.55874 -2.12132 2.12132 
C -1.55874 2.683901 -0.795609 3 0 3 
z
" style="stroke: #ff0000"/>
    </defs>
    <g clip-path="url(#pdf3e6a8b2a)">
     <use xlink:href="#m5f292cbeab" x="254.61" y="155.054839" style="fill: #ff0000; stroke: #ff0000"/>
     <use xlink:href="#m5f292cbeab" x="293.112" y="80.031389" style="fill: #ff0000; stroke: #ff0000"/>
     <use xlink:href="#m5f292cbeab" x="331.614" y="60.089989" style="fill: #ff0000; stroke: #ff0000"/>
    </g>
   </g>
   <g id="matplotlib.axis_1">
    <g id="xtick_1">
     <g id="line2d_1">
      <path d="M 62.1 273.264964 
L 62.1 36.844714 
" clip-path="url(#pdf3e6a8b2a)" style="fill: none; stroke-dasharray: 0.35,0.5775; stroke-dashoffset: 0; stroke: #b0b0b0; stroke-width: 0.35"/>
     </g>
     <g id="line2d_2">
      <defs>
       <path id="m30d3e86146" d="M 0 0 
L 0 3.5 
" style="stroke: #000000; stroke-width: 0.8"/>
      </defs>
      <g>
       <use xlink:href="#m30d3e86146" x="62.1" y="273.264964" style="stroke: #000000; stroke-width: 0.8"/>
      </g>
     </g>
     <g id="line2d_3">
      <defs>
       <path id="m63c7bdd234" d="M 0 0 
L 0 -3.5 
" style="stroke: #000000; stroke-width: 0.8"/>
      </defs>
      <g>
       <use xlink:href="#m63c7bdd234" x="62.1" y="36.844714" style="stroke: #000000; stroke-width: 0.8"/>
      </g>
     </g>
     <g id="text_1">
      <!-- $\mathdefault{0.0}$ -->
      <g transform="translate(55.734961 287.183463) scale(0.1 -0.1)">
       <defs>
        <path id="CMR17-30" d="M 2688 2038 
C 2688 2430 2682 3099 2413 3613 
C 2176 4063 1798 4224 1466 4224 
C 1158 4224 768 4082 525 3620 
C 269 3137 243 2539 243 2038 
C 243 1671 250 1112 448 623 
C 723 -39 1216 -128 1466 -128 
C 1760 -128 2208 -7 2470 604 
C 2662 1048 2688 1568 2688 2038 
z
M 1466 -26 
C 1056 -26 813 328 723 816 
C 653 1196 653 1749 653 2109 
C 653 2604 653 3015 736 3407 
C 858 3954 1216 4121 1466 4121 
C 1728 4121 2067 3947 2189 3420 
C 2272 3054 2278 2623 2278 2109 
C 2278 1691 2278 1176 2202 797 
C 2067 96 1690 -26 1466 -26 
z
" transform="scale(0.015625)"/>
        <path id="CMMI12-3a" d="M 1178 307 
C 1178 492 1024 620 870 620 
C 685 620 557 467 557 313 
C 557 128 710 0 864 0 
C 1050 0 1178 153 1178 307 
z
" transform="scale(0.015625)"/>
       </defs>
       <use xlink:href="#CMR17-30" transform="scale(0.996264)"/>
       <use xlink:href="#CMMI12-3a" transform="translate(45.690477 0) scale(0.996264)"/>
       <use xlink:href="#CMR17-30" transform="translate(72.787654 0) scale(0.996264)"/>
      </g>
     </g>
    </g>
    <g id="xtick_2">
     <g id="line2d_4">
      <path d="M 110.2275 273.264964 
L 110.2275 36.844714 
" clip-path="url(#pdf3e6a8b2a)" style="fill: none; stroke-dasharray: 0.35,0.5775; stroke-dashoffset: 0; stroke: #b0b0b0; stroke-width: 0.35"/>
     </g>
     <g id="line2d_5">
      <g>
       <use xlink:href="#m30d3e86146" x="110.2275" y="273.264964" style="stroke: #000000; stroke-width: 0.8"/>
      </g>
     </g>
     <g id="line2d_6">
      <g>
       <use xlink:href="#m63c7bdd234" x="110.2275" y="36.844714" style="stroke: #000000; stroke-width: 0.8"/>
      </g>
     </g>
     <g id="text_2">
      <!-- $\mathdefault{2.5}$ -->
      <g transform="translate(103.862461 287.183463) scale(0.1 -0.1)">
       <defs>
        <path id="CMR17-32" d="M 2669 990 
L 2554 990 
C 2490 537 2438 460 2413 422 
C 2381 371 1920 371 1830 371 
L 602 371 
C 832 620 1280 1073 1824 1596 
C 2214 1966 2669 2400 2669 3033 
C 2669 3788 2067 4224 1395 4224 
C 691 4224 262 3603 262 3027 
C 262 2777 448 2745 525 2745 
C 589 2745 781 2783 781 3007 
C 781 3206 614 3264 525 3264 
C 486 3264 448 3257 422 3244 
C 544 3788 915 4057 1306 4057 
C 1862 4057 2227 3616 2227 3033 
C 2227 2477 1901 1998 1536 1583 
L 262 147 
L 262 0 
L 2515 0 
L 2669 990 
z
" transform="scale(0.015625)"/>
        <path id="CMR17-35" d="M 730 3750 
C 794 3724 1056 3641 1325 3641 
C 1920 3641 2246 3961 2432 4140 
C 2432 4191 2432 4224 2394 4224 
C 2387 4224 2374 4224 2323 4198 
C 2099 4102 1837 4032 1517 4032 
C 1325 4032 1037 4055 723 4191 
C 653 4224 640 4224 634 4224 
C 602 4224 595 4217 595 4090 
L 595 2231 
C 595 2113 595 2080 659 2080 
C 691 2080 704 2093 736 2139 
C 941 2435 1222 2560 1542 2560 
C 1766 2560 2246 2415 2246 1293 
C 2246 1087 2246 716 2054 422 
C 1894 159 1645 25 1370 25 
C 947 25 518 319 403 812 
C 429 806 480 793 506 793 
C 589 793 749 838 749 1036 
C 749 1209 627 1280 506 1280 
C 358 1280 262 1190 262 1011 
C 262 454 704 -128 1382 -128 
C 2042 -128 2669 441 2669 1267 
C 2669 2054 2170 2662 1549 2662 
C 1222 2662 947 2540 730 2304 
L 730 3750 
z
" transform="scale(0.015625)"/>
       </defs>
       <use xlink:href="#CMR17-32" transform="scale(0.996264)"/>
       <use xlink:href="#CMMI12-3a" transform="translate(45.690477 0) scale(0.996264)"/>
       <use xlink:href="#CMR17-35" transform="translate(72.787654 0) scale(0.996264)"/>
      </g>
     </g>
    </g>
    <g id="xtick_3">
     <g id="line2d_7">
      <path d="M 158.355 273.264964 
L 158.355 36.844714 
" clip-path="url(#pdf3e6a8b2a)" style="fill: none; stroke-dasharray: 0.35,0.5775; stroke-dashoffset: 0; stroke: #b0b0b0; stroke-width: 0.35"/>
     </g>
     <g id="line2d_8">
      <g>
       <use xlink:href="#m30d3e86146" x="158.355" y="273.264964" style="stroke: #000000; stroke-width: 0.8"/>
      </g>
     </g>
     <g id="line2d_9">
      <g>
       <use xlink:href="#m63c7bdd234" x="158.355" y="36.844714" style="stroke: #000000; stroke-width: 0.8"/>
      </g>
     </g>
     <g id="text_3">
      <!-- $\mathdefault{5.0}$ -->
      <g transform="translate(151.989961 287.183463) scale(0.1 -0.1)">
       <use xlink:href="#CMR17-35" transform="scale(0.996264)"/>
       <use xlink:href="#CMMI12-3a" transform="translate(45.690477 0) scale(0.996264)"/>
       <use xlink:href="#CMR17-30" transform="translate(72.787654 0) scale(0.996264)"/>
      </g>
     </g>
    </g>
    <g id="xtick_4">
     <g id="line2d_10">
      <path d="M 206.4825 273.264964 
L 206.4825 36.844714 
" clip-path="url(#pdf3e6a8b2a)" style="fill: none; stroke-dasharray: 0.35,0.5775; stroke-dashoffset: 0; stroke: #b0b0b0; stroke-width: 0.35"/>
     </g>
     <g id="line2d_11">
      <g>
       <use xlink:href="#m30d3e86146" x="206.4825" y="273.264964" style="stroke: #000000; stroke-width: 0.8"/>
      </g>
     </g>
     <g id="line2d_12">
      <g>
       <use xlink:href="#m63c7bdd234" x="206.4825" y="36.844714" style="stroke: #000000; stroke-width: 0.8"/>
      </g>
     </g>
     <g id="text_4">
      <!-- $\mathdefault{7.5}$ -->
      <g transform="translate(200.117461 287.183463) scale(0.1 -0.1)">
       <defs>
        <path id="CMR17-37" d="M 2886 3955 
L 2886 4096 
L 1382 4096 
C 634 4096 621 4166 595 4288 
L 480 4288 
L 294 3104 
L 410 3104 
C 429 3226 474 3552 550 3673 
C 589 3724 1062 3724 1171 3724 
L 2579 3724 
L 1869 2670 
C 1395 1961 1069 1003 1069 166 
C 1069 89 1069 -128 1299 -128 
C 1530 -128 1530 89 1530 172 
L 1530 466 
C 1530 1514 1709 2204 2003 2644 
L 2886 3955 
z
" transform="scale(0.015625)"/>
       </defs>
       <use xlink:href="#CMR17-37" transform="scale(0.996264)"/>
       <use xlink:href="#CMMI12-3a" transform="translate(45.690477 0) scale(0.996264)"/>
       <use xlink:href="#CMR17-35" transform="translate(72.787654 0) scale(0.996264)"/>
      </g>
     </g>
    </g>
    <g id="xtick_5">
     <g id="line2d_13">
      <path d="M 254.61 273.264964 
L 254.61 36.844714 
" clip-path="url(#pdf3e6a8b2a)" style="fill: none; stroke-dasharray: 0.35,0.5775; stroke-dashoffset: 0; stroke: #b0b0b0; stroke-width: 0.35"/>
     </g>
     <g id="line2d_14">
      <g>
       <use xlink:href="#m30d3e86146" x="254.61" y="273.264964" style="stroke: #000000; stroke-width: 0.8"/>
      </g>
     </g>
     <g id="line2d_15">
      <g>
       <use xlink:href="#m63c7bdd234" x="254.61" y="36.844714" style="stroke: #000000; stroke-width: 0.8"/>
      </g>
     </g>
     <g id="text_5">
      <!-- $\mathdefault{10.0}$ -->
      <g transform="translate(245.754293 287.183463) scale(0.1 -0.1)">
       <defs>
        <path id="CMR17-31" d="M 1702 4083 
C 1702 4217 1696 4224 1606 4224 
C 1357 3927 979 3833 621 3820 
C 602 3820 570 3820 563 3808 
C 557 3795 557 3782 557 3648 
C 755 3648 1088 3686 1344 3839 
L 1344 467 
C 1344 243 1331 166 781 166 
L 589 166 
L 589 0 
C 896 6 1216 12 1523 12 
C 1830 12 2150 6 2458 0 
L 2458 166 
L 2266 166 
C 1715 166 1702 236 1702 467 
L 1702 4083 
z
" transform="scale(0.015625)"/>
       </defs>
       <use xlink:href="#CMR17-31" transform="scale(0.996264)"/>
       <use xlink:href="#CMR17-30" transform="translate(45.690477 0) scale(0.996264)"/>
       <use xlink:href="#CMMI12-3a" transform="translate(91.380954 0) scale(0.996264)"/>
       <use xlink:href="#CMR17-30" transform="translate(118.478131 0) scale(0.996264)"/>
      </g>
     </g>
    </g>
    <g id="xtick_6">
     <g id="line2d_16">
      <path d="M 302.7375 273.264964 
L 302.7375 36.844714 
" clip-path="url(#pdf3e6a8b2a)" style="fill: none; stroke-dasharray: 0.35,0.5775; stroke-dashoffset: 0; stroke: #b0b0b0; stroke-width: 0.35"/>
     </g>
     <g id="line2d_17">
      <g>
       <use xlink:href="#m30d3e86146" x="302.7375" y="273.264964" style="stroke: #000000; stroke-width: 0.8"/>
      </g>
     </g>
     <g id="line2d_18">
      <g>
       <use xlink:href="#m63c7bdd234" x="302.7375" y="36.844714" style="stroke: #000000; stroke-width: 0.8"/>
      </g>
     </g>
     <g id="text_6">
      <!-- $\mathdefault{12.5}$ -->
      <g transform="translate(293.881793 287.183463) scale(0.1 -0.1)">
       <use xlink:href="#CMR17-31" transform="scale(0.996264)"/>
       <use xlink:href="#CMR17-32" transform="translate(45.690477 0) scale(0.996264)"/>
       <use xlink:href="#CMMI12-3a" transform="translate(91.380954 0) scale(0.996264)"/>
       <use xlink:href="#CMR17-35" transform="translate(118.478131 0) scale(0.996264)"/>
      </g>
     </g>
    </g>
    <g id="xtick_7">
     <g id="line2d_19">
      <path d="M 350.865 273.264964 
L 350.865 36.844714 
" clip-path="url(#pdf3e6a8b2a)" style="fill: none; stroke-dasharray: 0.35,0.5775; stroke-dashoffset: 0; stroke: #b0b0b0; stroke-width: 0.35"/>
     </g>
     <g id="line2d_20">
      <g>
       <use xlink:href="#m30d3e86146" x="350.865" y="273.264964" style="stroke: #000000; stroke-width: 0.8"/>
      </g>
     </g>
     <g id="line2d_21">
      <g>
       <use xlink:href="#m63c7bdd234" x="350.865" y="36.844714" style="stroke: #000000; stroke-width: 0.8"/>
      </g>
     </g>
     <g id="text_7">
      <!-- $\mathdefault{15.0}$ -->
      <g transform="translate(342.009293 287.183463) scale(0.1 -0.1)">
       <use xlink:href="#CMR17-31" transform="scale(0.996264)"/>
       <use xlink:href="#CMR17-35" transform="translate(45.690477 0) scale(0.996264)"/>
       <use xlink:href="#CMMI12-3a" transform="translate(91.380954 0) scale(0.996264)"/>
       <use xlink:href="#CMR17-30" transform="translate(118.478131 0) scale(0.996264)"/>
      </g>
     </g>
    </g>
    <g id="xtick_8">
     <g id="line2d_22">
      <path d="M 398.9925 273.264964 
L 398.9925 36.844714 
" clip-path="url(#pdf3e6a8b2a)" style="fill: none; stroke-dasharray: 0.35,0.5775; stroke-dashoffset: 0; stroke: #b0b0b0; stroke-width: 0.35"/>
     </g>
     <g id="line2d_23">
      <g>
       <use xlink:href="#m30d3e86146" x="398.9925" y="273.264964" style="stroke: #000000; stroke-width: 0.8"/>
      </g>
     </g>
     <g id="line2d_24">
      <g>
       <use xlink:href="#m63c7bdd234" x="398.9925" y="36.844714" style="stroke: #000000; stroke-width: 0.8"/>
      </g>
     </g>
     <g id="text_8">
      <!-- $\mathdefault{17.5}$ -->
      <g transform="translate(390.136793 287.183463) scale(0.1 -0.1)">
       <use xlink:href="#CMR17-31" transform="scale(0.996264)"/>
       <use xlink:href="#CMR17-37" transform="translate(45.690477 0) scale(0.996264)"/>
       <use xlink:href="#CMMI12-3a" transform="translate(91.380954 0) scale(0.996264)"/>
       <use xlink:href="#CMR17-35" transform="translate(118.478131 0) scale(0.996264)"/>
      </g>
     </g>
    </g>
    <g id="xtick_9">
     <g id="line2d_25">
      <path d="M 447.12 273.264964 
L 447.12 36.844714 
" clip-path="url(#pdf3e6a8b2a)" style="fill: none; stroke-dasharray: 0.35,0.5775; stroke-dashoffset: 0; stroke: #b0b0b0; stroke-width: 0.35"/>
     </g>
     <g id="line2d_26">
      <g>
       <use xlink:href="#m30d3e86146" x="447.12" y="273.264964" style="stroke: #000000; stroke-width: 0.8"/>
      </g>
     </g>
     <g id="line2d_27">
      <g>
       <use xlink:href="#m63c7bdd234" x="447.12" y="36.844714" style="stroke: #000000; stroke-width: 0.8"/>
      </g>
     </g>
     <g id="text_9">
      <!-- $\mathdefault{20.0}$ -->
      <g transform="translate(438.264293 287.183463) scale(0.1 -0.1)">
       <use xlink:href="#CMR17-32" transform="scale(0.996264)"/>
       <use xlink:href="#CMR17-30" transform="translate(45.690477 0) scale(0.996264)"/>
       <use xlink:href="#CMMI12-3a" transform="translate(91.380954 0) scale(0.996264)"/>
       <use xlink:href="#CMR17-30" transform="translate(118.478131 0) scale(0.996264)"/>
      </g>
     </g>
    </g>
    <g id="xtick_10">
     <g id="line2d_28">
      <defs>
       <path id="md89c18e5c2" d="M 0 0 
L 0 2 
" style="stroke: #000000; stroke-width: 0.6"/>
      </defs>
      <g>
       <use xlink:href="#md89c18e5c2" x="71.7255" y="273.264964" style="stroke: #000000; stroke-width: 0.6"/>
      </g>
     </g>
     <g id="line2d_29">
      <defs>
       <path id="m2868e70115" d="M 0 0 
L 0 -2 
" style="stroke: #000000; stroke-width: 0.6"/>
      </defs>
      <g>
       <use xlink:href="#m2868e70115" x="71.7255" y="36.844714" style="stroke: #000000; stroke-width: 0.6"/>
      </g>
     </g>
    </g>
    <g id="xtick_11">
     <g id="line2d_30">
      <g>
       <use xlink:href="#md89c18e5c2" x="81.351" y="273.264964" style="stroke: #000000; stroke-width: 0.6"/>
      </g>
     </g>
     <g id="line2d_31">
      <g>
       <use xlink:href="#m2868e70115" x="81.351" y="36.844714" style="stroke: #000000; stroke-width: 0.6"/>
      </g>
     </g>
    </g>
    <g id="xtick_12">
     <g id="line2d_32">
      <g>
       <use xlink:href="#md89c18e5c2" x="90.9765" y="273.264964" style="stroke: #000000; stroke-width: 0.6"/>
      </g>
     </g>
     <g id="line2d_33">
      <g>
       <use xlink:href="#m2868e70115" x="90.9765" y="36.844714" style="stroke: #000000; stroke-width: 0.6"/>
      </g>
     </g>
    </g>
    <g id="xtick_13">
     <g id="line2d_34">
      <g>
       <use xlink:href="#md89c18e5c2" x="100.602" y="273.264964" style="stroke: #000000; stroke-width: 0.6"/>
      </g>
     </g>
     <g id="line2d_35">
      <g>
       <use xlink:href="#m2868e70115" x="100.602" y="36.844714" style="stroke: #000000; stroke-width: 0.6"/>
      </g>
     </g>
    </g>
    <g id="xtick_14">
     <g id="line2d_36">
      <g>
       <use xlink:href="#md89c18e5c2" x="119.853" y="273.264964" style="stroke: #000000; stroke-width: 0.6"/>
      </g>
     </g>
     <g id="line2d_37">
      <g>
       <use xlink:href="#m2868e70115" x="119.853" y="36.844714" style="stroke: #000000; stroke-width: 0.6"/>
      </g>
     </g>
    </g>
    <g id="xtick_15">
     <g id="line2d_38">
      <g>
       <use xlink:href="#md89c18e5c2" x="129.4785" y="273.264964" style="stroke: #000000; stroke-width: 0.6"/>
      </g>
     </g>
     <g id="line2d_39">
      <g>
       <use xlink:href="#m2868e70115" x="129.4785" y="36.844714" style="stroke: #000000; stroke-width: 0.6"/>
      </g>
     </g>
    </g>
    <g id="xtick_16">
     <g id="line2d_40">
      <g>
       <use xlink:href="#md89c18e5c2" x="139.104" y="273.264964" style="stroke: #000000; stroke-width: 0.6"/>
      </g>
     </g>
     <g id="line2d_41">
      <g>
       <use xlink:href="#m2868e70115" x="139.104" y="36.844714" style="stroke: #000000; stroke-width: 0.6"/>
      </g>
     </g>
    </g>
    <g id="xtick_17">
     <g id="line2d_42">
      <g>
       <use xlink:href="#md89c18e5c2" x="148.7295" y="273.264964" style="stroke: #000000; stroke-width: 0.6"/>
      </g>
     </g>
     <g id="line2d_43">
      <g>
       <use xlink:href="#m2868e70115" x="148.7295" y="36.844714" style="stroke: #000000; stroke-width: 0.6"/>
      </g>
     </g>
    </g>
    <g id="xtick_18">
     <g id="line2d_44">
      <g>
       <use xlink:href="#md89c18e5c2" x="167.9805" y="273.264964" style="stroke: #000000; stroke-width: 0.6"/>
      </g>
     </g>
     <g id="line2d_45">
      <g>
       <use xlink:href="#m2868e70115" x="167.9805" y="36.844714" style="stroke: #000000; stroke-width: 0.6"/>
      </g>
     </g>
    </g>
    <g id="xtick_19">
     <g id="line2d_46">
      <g>
       <use xlink:href="#md89c18e5c2" x="177.606" y="273.264964" style="stroke: #000000; stroke-width: 0.6"/>
      </g>
     </g>
     <g id="line2d_47">
      <g>
       <use xlink:href="#m2868e70115" x="177.606" y="36.844714" style="stroke: #000000; stroke-width: 0.6"/>
      </g>
     </g>
    </g>
    <g id="xtick_20">
     <g id="line2d_48">
      <g>
       <use xlink:href="#md89c18e5c2" x="187.2315" y="273.264964" style="stroke: #000000; stroke-width: 0.6"/>
      </g>
     </g>
     <g id="line2d_49">
      <g>
       <use xlink:href="#m2868e70115" x="187.2315" y="36.844714" style="stroke: #000000; stroke-width: 0.6"/>
      </g>
     </g>
    </g>
    <g id="xtick_21">
     <g id="line2d_50">
      <g>
       <use xlink:href="#md89c18e5c2" x="196.857" y="273.264964" style="stroke: #000000; stroke-width: 0.6"/>
      </g>
     </g>
     <g id="line2d_51">
      <g>
       <use xlink:href="#m2868e70115" x="196.857" y="36.844714" style="stroke: #000000; stroke-width: 0.6"/>
      </g>
     </g>
    </g>
    <g id="xtick_22">
     <g id="line2d_52">
      <g>
       <use xlink:href="#md89c18e5c2" x="216.108" y="273.264964" style="stroke: #000000; stroke-width: 0.6"/>
      </g>
     </g>
     <g id="line2d_53">
      <g>
       <use xlink:href="#m2868e70115" x="216.108" y="36.844714" style="stroke: #000000; stroke-width: 0.6"/>
      </g>
     </g>
    </g>
    <g id="xtick_23">
     <g id="line2d_54">
      <g>
       <use xlink:href="#md89c18e5c2" x="225.7335" y="273.264964" style="stroke: #000000; stroke-width: 0.6"/>
      </g>
     </g>
     <g id="line2d_55">
      <g>
       <use xlink:href="#m2868e70115" x="225.7335" y="36.844714" style="stroke: #000000; stroke-width: 0.6"/>
      </g>
     </g>
    </g>
    <g id="xtick_24">
     <g id="line2d_56">
      <g>
       <use xlink:href="#md89c18e5c2" x="235.359" y="273.264964" style="stroke: #000000; stroke-width: 0.6"/>
      </g>
     </g>
     <g id="line2d_57">
      <g>
       <use xlink:href="#m2868e70115" x="235.359" y="36.844714" style="stroke: #000000; stroke-width: 0.6"/>
      </g>
     </g>
    </g>
    <g id="xtick_25">
     <g id="line2d_58">
      <g>
       <use xlink:href="#md89c18e5c2" x="244.9845" y="273.264964" style="stroke: #000000; stroke-width: 0.6"/>
      </g>
     </g>
     <g id="line2d_59">
      <g>
       <use xlink:href="#m2868e70115" x="244.9845" y="36.844714" style="stroke: #000000; stroke-width: 0.6"/>
      </g>
     </g>
    </g>
    <g id="xtick_26">
     <g id="line2d_60">
      <g>
       <use xlink:href="#md89c18e5c2" x="264.2355" y="273.264964" style="stroke: #000000; stroke-width: 0.6"/>
      </g>
     </g>
     <g id="line2d_61">
      <g>
       <use xlink:href="#m2868e70115" x="264.2355" y="36.844714" style="stroke: #000000; stroke-width: 0.6"/>
      </g>
     </g>
    </g>
    <g id="xtick_27">
     <g id="line2d_62">
      <g>
       <use xlink:href="#md89c18e5c2" x="273.861" y="273.264964" style="stroke: #000000; stroke-width: 0.6"/>
      </g>
     </g>
     <g id="line2d_63">
      <g>
       <use xlink:href="#m2868e70115" x="273.861" y="36.844714" style="stroke: #000000; stroke-width: 0.6"/>
      </g>
     </g>
    </g>
    <g id="xtick_28">
     <g id="line2d_64">
      <g>
       <use xlink:href="#md89c18e5c2" x="283.4865" y="273.264964" style="stroke: #000000; stroke-width: 0.6"/>
      </g>
     </g>
     <g id="line2d_65">
      <g>
       <use xlink:href="#m2868e70115" x="283.4865" y="36.844714" style="stroke: #000000; stroke-width: 0.6"/>
      </g>
     </g>
    </g>
    <g id="xtick_29">
     <g id="line2d_66">
      <g>
       <use xlink:href="#md89c18e5c2" x="293.112" y="273.264964" style="stroke: #000000; stroke-width: 0.6"/>
      </g>
     </g>
     <g id="line2d_67">
      <g>
       <use xlink:href="#m2868e70115" x="293.112" y="36.844714" style="stroke: #000000; stroke-width: 0.6"/>
      </g>
     </g>
    </g>
    <g id="xtick_30">
     <g id="line2d_68">
      <g>
       <use xlink:href="#md89c18e5c2" x="312.363" y="273.264964" style="stroke: #000000; stroke-width: 0.6"/>
      </g>
     </g>
     <g id="line2d_69">
      <g>
       <use xlink:href="#m2868e70115" x="312.363" y="36.844714" style="stroke: #000000; stroke-width: 0.6"/>
      </g>
     </g>
    </g>
    <g id="xtick_31">
     <g id="line2d_70">
      <g>
       <use xlink:href="#md89c18e5c2" x="321.9885" y="273.264964" style="stroke: #000000; stroke-width: 0.6"/>
      </g>
     </g>
     <g id="line2d_71">
      <g>
       <use xlink:href="#m2868e70115" x="321.9885" y="36.844714" style="stroke: #000000; stroke-width: 0.6"/>
      </g>
     </g>
    </g>
    <g id="xtick_32">
     <g id="line2d_72">
      <g>
       <use xlink:href="#md89c18e5c2" x="331.614" y="273.264964" style="stroke: #000000; stroke-width: 0.6"/>
      </g>
     </g>
     <g id="line2d_73">
      <g>
       <use xlink:href="#m2868e70115" x="331.614" y="36.844714" style="stroke: #000000; stroke-width: 0.6"/>
      </g>
     </g>
    </g>
    <g id="xtick_33">
     <g id="line2d_74">
      <g>
       <use xlink:href="#md89c18e5c2" x="341.2395" y="273.264964" style="stroke: #000000; stroke-width: 0.6"/>
      </g>
     </g>
     <g id="line2d_75">
      <g>
       <use xlink:href="#m2868e70115" x="341.2395" y="36.844714" style="stroke: #000000; stroke-width: 0.6"/>
      </g>
     </g>
    </g>
    <g id="xtick_34">
     <g id="line2d_76">
      <g>
       <use xlink:href="#md89c18e5c2" x="360.4905" y="273.264964" style="stroke: #000000; stroke-width: 0.6"/>
      </g>
     </g>
     <g id="line2d_77">
      <g>
       <use xlink:href="#m2868e70115" x="360.4905" y="36.844714" style="stroke: #000000; stroke-width: 0.6"/>
      </g>
     </g>
    </g>
    <g id="xtick_35">
     <g id="line2d_78">
      <g>
       <use xlink:href="#md89c18e5c2" x="370.116" y="273.264964" style="stroke: #000000; stroke-width: 0.6"/>
      </g>
     </g>
     <g id="line2d_79">
      <g>
       <use xlink:href="#m2868e70115" x="370.116" y="36.844714" style="stroke: #000000; stroke-width: 0.6"/>
      </g>
     </g>
    </g>
    <g id="xtick_36">
     <g id="line2d_80">
      <g>
       <use xlink:href="#md89c18e5c2" x="379.7415" y="273.264964" style="stroke: #000000; stroke-width: 0.6"/>
      </g>
     </g>
     <g id="line2d_81">
      <g>
       <use xlink:href="#m2868e70115" x="379.7415" y="36.844714" style="stroke: #000000; stroke-width: 0.6"/>
      </g>
     </g>
    </g>
    <g id="xtick_37">
     <g id="line2d_82">
      <g>
       <use xlink:href="#md89c18e5c2" x="389.367" y="273.264964" style="stroke: #000000; stroke-width: 0.6"/>
      </g>
     </g>
     <g id="line2d_83">
      <g>
       <use xlink:href="#m2868e70115" x="389.367" y="36.844714" style="stroke: #000000; stroke-width: 0.6"/>
      </g>
     </g>
    </g>
    <g id="xtick_38">
     <g id="line2d_84">
      <g>
       <use xlink:href="#md89c18e5c2" x="408.618" y="273.264964" style="stroke: #000000; stroke-width: 0.6"/>
      </g>
     </g>
     <g id="line2d_85">
      <g>
       <use xlink:href="#m2868e70115" x="408.618" y="36.844714" style="stroke: #000000; stroke-width: 0.6"/>
      </g>
     </g>
    </g>
    <g id="xtick_39">
     <g id="line2d_86">
      <g>
       <use xlink:href="#md89c18e5c2" x="418.2435" y="273.264964" style="stroke: #000000; stroke-width: 0.6"/>
      </g>
     </g>
     <g id="line2d_87">
      <g>
       <use xlink:href="#m2868e70115" x="418.2435" y="36.844714" style="stroke: #000000; stroke-width: 0.6"/>
      </g>
     </g>
    </g>
    <g id="xtick_40">
     <g id="line2d_88">
      <g>
       <use xlink:href="#md89c18e5c2" x="427.869" y="273.264964" style="stroke: #000000; stroke-width: 0.6"/>
      </g>
     </g>
     <g id="line2d_89">
      <g>
       <use xlink:href="#m2868e70115" x="427.869" y="36.844714" style="stroke: #000000; stroke-width: 0.6"/>
      </g>
     </g>
    </g>
    <g id="xtick_41">
     <g id="line2d_90">
      <g>
       <use xlink:href="#md89c18e5c2" x="437.4945" y="273.264964" style="stroke: #000000; stroke-width: 0.6"/>
      </g>
     </g>
     <g id="line2d_91">
      <g>
       <use xlink:href="#m2868e70115" x="437.4945" y="36.844714" style="stroke: #000000; stroke-width: 0.6"/>
      </g>
     </g>
    </g>
    <g id="text_10">
     <!-- x -->
     <g transform="translate(250.491229 304.190229) scale(0.16 -0.16)">
      <defs>
       <path id="CMR17-78" d="M 1664 1491 
C 1856 1740 2074 2022 2253 2233 
C 2464 2476 2707 2579 2989 2585 
L 2989 2752 
C 2880 2745 2656 2739 2541 2739 
C 2368 2739 2170 2739 2022 2752 
L 2022 2585 
C 2112 2572 2163 2508 2163 2419 
C 2163 2304 2099 2233 2067 2188 
L 1594 1587 
L 1030 2323 
C 973 2393 973 2406 973 2438 
C 973 2515 1037 2579 1146 2585 
L 1146 2752 
C 992 2739 717 2739 557 2739 
C 384 2739 179 2739 38 2752 
L 38 2585 
C 384 2585 461 2560 614 2368 
L 1350 1414 
C 1363 1401 1395 1363 1395 1344 
C 1395 1318 838 633 768 544 
C 480 198 179 172 6 166 
L 6 0 
C 115 6 339 12 454 12 
C 582 12 864 12 979 0 
L 979 166 
C 941 172 838 185 838 332 
C 838 448 890 518 947 595 
L 1478 1248 
L 2035 524 
C 2086 454 2163 358 2163 313 
C 2163 224 2086 172 1984 166 
L 1984 0 
C 2138 12 2413 12 2573 12 
C 2746 12 2950 12 3091 0 
L 3091 166 
C 2771 166 2675 179 2522 377 
L 1664 1491 
z
" transform="scale(0.015625)"/>
      </defs>
      <use xlink:href="#CMR17-78" transform="scale(0.996264)"/>
     </g>
    </g>
   </g>
   <g id="matplotlib.axis_2">
    <g id="ytick_1">
     <g id="line2d_92">
      <path d="M 62.1 273.264964 
L 447.12 273.264964 
" clip-path="url(#pdf3e6a8b2a)" style="fill: none; stroke-dasharray: 0.35,0.5775; stroke-dashoffset: 0; stroke: #b0b0b0; stroke-width: 0.35"/>
     </g>
     <g id="line2d_93">
      <defs>
       <path id="m6edfc04233" d="M 0 0 
L -3.5 0 
" style="stroke: #000000; stroke-width: 0.8"/>
      </defs>
      <g>
       <use xlink:href="#m6edfc04233" x="62.1" y="273.264964" style="stroke: #000000; stroke-width: 0.8"/>
      </g>
     </g>
     <g id="line2d_94">
      <defs>
       <path id="md9cb12cb22" d="M 0 0 
L 3.5 0 
" style="stroke: #000000; stroke-width: 0.8"/>
      </defs>
      <g>
       <use xlink:href="#md9cb12cb22" x="447.12" y="273.264964" style="stroke: #000000; stroke-width: 0.8"/>
      </g>
     </g>
     <g id="text_11">
      <!-- $\mathdefault{−0.6}$ -->
      <g transform="translate(34.621177 276.724213) scale(0.1 -0.1)">
       <defs>
        <path id="CMSY10-0" d="M 4218 1472 
C 4326 1472 4442 1472 4442 1600 
C 4442 1728 4326 1728 4218 1728 
L 755 1728 
C 646 1728 531 1728 531 1600 
C 531 1472 646 1472 755 1472 
L 4218 1472 
z
" transform="scale(0.015625)"/>
        <path id="CMR17-36" d="M 678 2198 
C 678 3712 1395 4076 1811 4076 
C 1946 4076 2272 4049 2400 3782 
C 2298 3782 2106 3782 2106 3558 
C 2106 3385 2246 3328 2336 3328 
C 2394 3328 2566 3353 2566 3571 
C 2566 3987 2246 4224 1805 4224 
C 1043 4224 243 3411 243 2011 
C 243 257 966 -128 1478 -128 
C 2099 -128 2688 431 2688 1295 
C 2688 2101 2170 2688 1517 2688 
C 1126 2688 838 2430 678 1979 
L 678 2198 
z
M 1478 25 
C 691 25 691 1212 691 1450 
C 691 1914 909 2585 1504 2585 
C 1613 2585 1926 2585 2138 2140 
C 2253 1889 2253 1624 2253 1302 
C 2253 954 2253 696 2118 438 
C 1978 173 1773 25 1478 25 
z
" transform="scale(0.015625)"/>
       </defs>
       <use xlink:href="#CMSY10-0" transform="scale(0.996264)"/>
       <use xlink:href="#CMR17-30" transform="translate(77.487468 0) scale(0.996264)"/>
       <use xlink:href="#CMMI12-3a" transform="translate(123.177945 0) scale(0.996264)"/>
       <use xlink:href="#CMR17-36" transform="translate(150.275122 0) scale(0.996264)"/>
      </g>
     </g>
    </g>
    <g id="ytick_2">
     <g id="line2d_95">
      <path d="M 62.1 233.861589 
L 447.12 233.861589 
" clip-path="url(#pdf3e6a8b2a)" style="fill: none; stroke-dasharray: 0.35,0.5775; stroke-dashoffset: 0; stroke: #b0b0b0; stroke-width: 0.35"/>
     </g>
     <g id="line2d_96">
      <g>
       <use xlink:href="#m6edfc04233" x="62.1" y="233.861589" style="stroke: #000000; stroke-width: 0.8"/>
      </g>
     </g>
     <g id="line2d_97">
      <g>
       <use xlink:href="#md9cb12cb22" x="447.12" y="233.861589" style="stroke: #000000; stroke-width: 0.8"/>
      </g>
     </g>
     <g id="text_12">
      <!-- $\mathdefault{−0.4}$ -->
      <g transform="translate(34.621177 237.320838) scale(0.1 -0.1)">
       <defs>
        <path id="CMR17-34" d="M 2150 4147 
C 2150 4281 2144 4288 2029 4288 
L 128 1254 
L 128 1088 
L 1779 1088 
L 1779 460 
C 1779 230 1766 166 1318 166 
L 1197 166 
L 1197 0 
C 1402 12 1747 12 1965 12 
C 2182 12 2528 12 2733 0 
L 2733 166 
L 2611 166 
C 2163 166 2150 230 2150 460 
L 2150 1088 
L 2803 1088 
L 2803 1254 
L 2150 1254 
L 2150 4147 
z
M 1798 3723 
L 1798 1254 
L 256 1254 
L 1798 3723 
z
" transform="scale(0.015625)"/>
       </defs>
       <use xlink:href="#CMSY10-0" transform="scale(0.996264)"/>
       <use xlink:href="#CMR17-30" transform="translate(77.487468 0) scale(0.996264)"/>
       <use xlink:href="#CMMI12-3a" transform="translate(123.177945 0) scale(0.996264)"/>
       <use xlink:href="#CMR17-34" transform="translate(150.275122 0) scale(0.996264)"/>
      </g>
     </g>
    </g>
    <g id="ytick_3">
     <g id="line2d_98">
      <path d="M 62.1 194.458214 
L 447.12 194.458214 
" clip-path="url(#pdf3e6a8b2a)" style="fill: none; stroke-dasharray: 0.35,0.5775; stroke-dashoffset: 0; stroke: #b0b0b0; stroke-width: 0.35"/>
     </g>
     <g id="line2d_99">
      <g>
       <use xlink:href="#m6edfc04233" x="62.1" y="194.458214" style="stroke: #000000; stroke-width: 0.8"/>
      </g>
     </g>
     <g id="line2d_100">
      <g>
       <use xlink:href="#md9cb12cb22" x="447.12" y="194.458214" style="stroke: #000000; stroke-width: 0.8"/>
      </g>
     </g>
     <g id="text_13">
      <!-- $\mathdefault{−0.2}$ -->
      <g transform="translate(34.621177 197.917463) scale(0.1 -0.1)">
       <use xlink:href="#CMSY10-0" transform="scale(0.996264)"/>
       <use xlink:href="#CMR17-30" transform="translate(77.487468 0) scale(0.996264)"/>
       <use xlink:href="#CMMI12-3a" transform="translate(123.177945 0) scale(0.996264)"/>
       <use xlink:href="#CMR17-32" transform="translate(150.275122 0) scale(0.996264)"/>
      </g>
     </g>
    </g>
    <g id="ytick_4">
     <g id="line2d_101">
      <path d="M 62.1 155.054839 
L 447.12 155.054839 
" clip-path="url(#pdf3e6a8b2a)" style="fill: none; stroke-dasharray: 0.35,0.5775; stroke-dashoffset: 0; stroke: #b0b0b0; stroke-width: 0.35"/>
     </g>
     <g id="line2d_102">
      <g>
       <use xlink:href="#m6edfc04233" x="62.1" y="155.054839" style="stroke: #000000; stroke-width: 0.8"/>
      </g>
     </g>
     <g id="line2d_103">
      <g>
       <use xlink:href="#md9cb12cb22" x="447.12" y="155.054839" style="stroke: #000000; stroke-width: 0.8"/>
      </g>
     </g>
     <g id="text_14">
      <!-- $\mathdefault{0.0}$ -->
      <g transform="translate(42.369921 158.514088) scale(0.1 -0.1)">
       <use xlink:href="#CMR17-30" transform="scale(0.996264)"/>
       <use xlink:href="#CMMI12-3a" transform="translate(45.690477 0) scale(0.996264)"/>
       <use xlink:href="#CMR17-30" transform="translate(72.787654 0) scale(0.996264)"/>
      </g>
     </g>
    </g>
    <g id="ytick_5">
     <g id="line2d_104">
      <path d="M 62.1 115.651464 
L 447.12 115.651464 
" clip-path="url(#pdf3e6a8b2a)" style="fill: none; stroke-dasharray: 0.35,0.5775; stroke-dashoffset: 0; stroke: #b0b0b0; stroke-width: 0.35"/>
     </g>
     <g id="line2d_105">
      <g>
       <use xlink:href="#m6edfc04233" x="62.1" y="115.651464" style="stroke: #000000; stroke-width: 0.8"/>
      </g>
     </g>
     <g id="line2d_106">
      <g>
       <use xlink:href="#md9cb12cb22" x="447.12" y="115.651464" style="stroke: #000000; stroke-width: 0.8"/>
      </g>
     </g>
     <g id="text_15">
      <!-- $\mathdefault{0.2}$ -->
      <g transform="translate(42.369921 119.110713) scale(0.1 -0.1)">
       <use xlink:href="#CMR17-30" transform="scale(0.996264)"/>
       <use xlink:href="#CMMI12-3a" transform="translate(45.690477 0) scale(0.996264)"/>
       <use xlink:href="#CMR17-32" transform="translate(72.787654 0) scale(0.996264)"/>
      </g>
     </g>
    </g>
    <g id="ytick_6">
     <g id="line2d_107">
      <path d="M 62.1 76.248089 
L 447.12 76.248089 
" clip-path="url(#pdf3e6a8b2a)" style="fill: none; stroke-dasharray: 0.35,0.5775; stroke-dashoffset: 0; stroke: #b0b0b0; stroke-width: 0.35"/>
     </g>
     <g id="line2d_108">
      <g>
       <use xlink:href="#m6edfc04233" x="62.1" y="76.248089" style="stroke: #000000; stroke-width: 0.8"/>
      </g>
     </g>
     <g id="line2d_109">
      <g>
       <use xlink:href="#md9cb12cb22" x="447.12" y="76.248089" style="stroke: #000000; stroke-width: 0.8"/>
      </g>
     </g>
     <g id="text_16">
      <!-- $\mathdefault{0.4}$ -->
      <g transform="translate(42.369921 79.707338) scale(0.1 -0.1)">
       <use xlink:href="#CMR17-30" transform="scale(0.996264)"/>
       <use xlink:href="#CMMI12-3a" transform="translate(45.690477 0) scale(0.996264)"/>
       <use xlink:href="#CMR17-34" transform="translate(72.787654 0) scale(0.996264)"/>
      </g>
     </g>
    </g>
    <g id="ytick_7">
     <g id="line2d_110">
      <path d="M 62.1 36.844714 
L 447.12 36.844714 
" clip-path="url(#pdf3e6a8b2a)" style="fill: none; stroke-dasharray: 0.35,0.5775; stroke-dashoffset: 0; stroke: #b0b0b0; stroke-width: 0.35"/>
     </g>
     <g id="line2d_111">
      <g>
       <use xlink:href="#m6edfc04233" x="62.1" y="36.844714" style="stroke: #000000; stroke-width: 0.8"/>
      </g>
     </g>
     <g id="line2d_112">
      <g>
       <use xlink:href="#md9cb12cb22" x="447.12" y="36.844714" style="stroke: #000000; stroke-width: 0.8"/>
      </g>
     </g>
     <g id="text_17">
      <!-- $\mathdefault{0.6}$ -->
      <g transform="translate(42.369921 40.303963) scale(0.1 -0.1)">
       <use xlink:href="#CMR17-30" transform="scale(0.996264)"/>
       <use xlink:href="#CMMI12-3a" transform="translate(45.690477 0) scale(0.996264)"/>
       <use xlink:href="#CMR17-36" transform="translate(72.787654 0) scale(0.996264)"/>
      </g>
     </g>
    </g>
    <g id="ytick_8">
     <g id="line2d_113">
      <defs>
       <path id="mcf835c38b3" d="M 0 0 
L -2 0 
" style="stroke: #000000; stroke-width: 0.6"/>
      </defs>
      <g>
       <use xlink:href="#mcf835c38b3" x="62.1" y="263.41412" style="stroke: #000000; stroke-width: 0.6"/>
      </g>
     </g>
     <g id="line2d_114">
      <defs>
       <path id="m45f7f4949f" d="M 0 0 
L 2 0 
" style="stroke: #000000; stroke-width: 0.6"/>
      </defs>
      <g>
       <use xlink:href="#m45f7f4949f" x="447.12" y="263.41412" style="stroke: #000000; stroke-width: 0.6"/>
      </g>
     </g>
    </g>
    <g id="ytick_9">
     <g id="line2d_115">
      <g>
       <use xlink:href="#mcf835c38b3" x="62.1" y="253.563277" style="stroke: #000000; stroke-width: 0.6"/>
      </g>
     </g>
     <g id="line2d_116">
      <g>
       <use xlink:href="#m45f7f4949f" x="447.12" y="253.563277" style="stroke: #000000; stroke-width: 0.6"/>
      </g>
     </g>
    </g>
    <g id="ytick_10">
     <g id="line2d_117">
      <g>
       <use xlink:href="#mcf835c38b3" x="62.1" y="243.712433" style="stroke: #000000; stroke-width: 0.6"/>
      </g>
     </g>
     <g id="line2d_118">
      <g>
       <use xlink:href="#m45f7f4949f" x="447.12" y="243.712433" style="stroke: #000000; stroke-width: 0.6"/>
      </g>
     </g>
    </g>
    <g id="ytick_11">
     <g id="line2d_119">
      <g>
       <use xlink:href="#mcf835c38b3" x="62.1" y="224.010745" style="stroke: #000000; stroke-width: 0.6"/>
      </g>
     </g>
     <g id="line2d_120">
      <g>
       <use xlink:href="#m45f7f4949f" x="447.12" y="224.010745" style="stroke: #000000; stroke-width: 0.6"/>
      </g>
     </g>
    </g>
    <g id="ytick_12">
     <g id="line2d_121">
      <g>
       <use xlink:href="#mcf835c38b3" x="62.1" y="214.159902" style="stroke: #000000; stroke-width: 0.6"/>
      </g>
     </g>
     <g id="line2d_122">
      <g>
       <use xlink:href="#m45f7f4949f" x="447.12" y="214.159902" style="stroke: #000000; stroke-width: 0.6"/>
      </g>
     </g>
    </g>
    <g id="ytick_13">
     <g id="line2d_123">
      <g>
       <use xlink:href="#mcf835c38b3" x="62.1" y="204.309058" style="stroke: #000000; stroke-width: 0.6"/>
      </g>
     </g>
     <g id="line2d_124">
      <g>
       <use xlink:href="#m45f7f4949f" x="447.12" y="204.309058" style="stroke: #000000; stroke-width: 0.6"/>
      </g>
     </g>
    </g>
    <g id="ytick_14">
     <g id="line2d_125">
      <g>
       <use xlink:href="#mcf835c38b3" x="62.1" y="184.60737" style="stroke: #000000; stroke-width: 0.6"/>
      </g>
     </g>
     <g id="line2d_126">
      <g>
       <use xlink:href="#m45f7f4949f" x="447.12" y="184.60737" style="stroke: #000000; stroke-width: 0.6"/>
      </g>
     </g>
    </g>
    <g id="ytick_15">
     <g id="line2d_127">
      <g>
       <use xlink:href="#mcf835c38b3" x="62.1" y="174.756527" style="stroke: #000000; stroke-width: 0.6"/>
      </g>
     </g>
     <g id="line2d_128">
      <g>
       <use xlink:href="#m45f7f4949f" x="447.12" y="174.756527" style="stroke: #000000; stroke-width: 0.6"/>
      </g>
     </g>
    </g>
    <g id="ytick_16">
     <g id="line2d_129">
      <g>
       <use xlink:href="#mcf835c38b3" x="62.1" y="164.905683" style="stroke: #000000; stroke-width: 0.6"/>
      </g>
     </g>
     <g id="line2d_130">
      <g>
       <use xlink:href="#m45f7f4949f" x="447.12" y="164.905683" style="stroke: #000000; stroke-width: 0.6"/>
      </g>
     </g>
    </g>
    <g id="ytick_17">
     <g id="line2d_131">
      <g>
       <use xlink:href="#mcf835c38b3" x="62.1" y="145.203995" style="stroke: #000000; stroke-width: 0.6"/>
      </g>
     </g>
     <g id="line2d_132">
      <g>
       <use xlink:href="#m45f7f4949f" x="447.12" y="145.203995" style="stroke: #000000; stroke-width: 0.6"/>
      </g>
     </g>
    </g>
    <g id="ytick_18">
     <g id="line2d_133">
      <g>
       <use xlink:href="#mcf835c38b3" x="62.1" y="135.353152" style="stroke: #000000; stroke-width: 0.6"/>
      </g>
     </g>
     <g id="line2d_134">
      <g>
       <use xlink:href="#m45f7f4949f" x="447.12" y="135.353152" style="stroke: #000000; stroke-width: 0.6"/>
      </g>
     </g>
    </g>
    <g id="ytick_19">
     <g id="line2d_135">
      <g>
       <use xlink:href="#mcf835c38b3" x="62.1" y="125.502308" style="stroke: #000000; stroke-width: 0.6"/>
      </g>
     </g>
     <g id="line2d_136">
      <g>
       <use xlink:href="#m45f7f4949f" x="447.12" y="125.502308" style="stroke: #000000; stroke-width: 0.6"/>
      </g>
     </g>
    </g>
    <g id="ytick_20">
     <g id="line2d_137">
      <g>
       <use xlink:href="#mcf835c38b3" x="62.1" y="105.800621" style="stroke: #000000; stroke-width: 0.6"/>
      </g>
     </g>
     <g id="line2d_138">
      <g>
       <use xlink:href="#m45f7f4949f" x="447.12" y="105.800621" style="stroke: #000000; stroke-width: 0.6"/>
      </g>
     </g>
    </g>
    <g id="ytick_21">
     <g id="line2d_139">
      <g>
       <use xlink:href="#mcf835c38b3" x="62.1" y="95.949777" style="stroke: #000000; stroke-width: 0.6"/>
      </g>
     </g>
     <g id="line2d_140">
      <g>
       <use xlink:href="#m45f7f4949f" x="447.12" y="95.949777" style="stroke: #000000; stroke-width: 0.6"/>
      </g>
     </g>
    </g>
    <g id="ytick_22">
     <g id="line2d_141">
      <g>
       <use xlink:href="#mcf835c38b3" x="62.1" y="86.098933" style="stroke: #000000; stroke-width: 0.6"/>
      </g>
     </g>
     <g id="line2d_142">
      <g>
       <use xlink:href="#m45f7f4949f" x="447.12" y="86.098933" style="stroke: #000000; stroke-width: 0.6"/>
      </g>
     </g>
    </g>
    <g id="ytick_23">
     <g id="line2d_143">
      <g>
       <use xlink:href="#mcf835c38b3" x="62.1" y="66.397246" style="stroke: #000000; stroke-width: 0.6"/>
      </g>
     </g>
     <g id="line2d_144">
      <g>
       <use xlink:href="#m45f7f4949f" x="447.12" y="66.397246" style="stroke: #000000; stroke-width: 0.6"/>
      </g>
     </g>
    </g>
    <g id="ytick_24">
     <g id="line2d_145">
      <g>
       <use xlink:href="#mcf835c38b3" x="62.1" y="56.546402" style="stroke: #000000; stroke-width: 0.6"/>
      </g>
     </g>
     <g id="line2d_146">
      <g>
       <use xlink:href="#m45f7f4949f" x="447.12" y="56.546402" style="stroke: #000000; stroke-width: 0.6"/>
      </g>
     </g>
    </g>
    <g id="ytick_25">
     <g id="line2d_147">
      <g>
       <use xlink:href="#mcf835c38b3" x="62.1" y="46.695558" style="stroke: #000000; stroke-width: 0.6"/>
      </g>
     </g>
     <g id="line2d_148">
      <g>
       <use xlink:href="#m45f7f4949f" x="447.12" y="46.695558" style="stroke: #000000; stroke-width: 0.6"/>
      </g>
     </g>
    </g>
    <g id="text_18">
     <!-- y -->
     <g transform="translate(27.521701 159.17361) rotate(-90) scale(0.16 -0.16)">
      <defs>
       <path id="CMR17-79" d="M 2496 2183 
C 2656 2579 2944 2585 3034 2585 
L 3034 2752 
C 2912 2745 2752 2739 2630 2739 
C 2496 2739 2285 2739 2157 2752 
L 2157 2585 
C 2400 2566 2406 2384 2406 2332 
C 2406 2268 2394 2235 2362 2158 
L 1664 409 
L 902 2300 
C 870 2378 870 2423 870 2430 
C 870 2572 1018 2585 1171 2585 
L 1171 2752 
C 1018 2739 742 2739 582 2739 
C 410 2739 205 2739 64 2752 
L 64 2585 
C 410 2585 448 2553 531 2345 
L 1485 -31 
C 1197 -795 1030 -1242 627 -1242 
C 557 -1242 397 -1223 282 -1106 
C 429 -1093 493 -1002 493 -892 
C 493 -782 416 -685 288 -685 
C 147 -685 77 -782 77 -899 
C 77 -1158 339 -1344 627 -1344 
C 998 -1344 1229 -983 1357 -659 
L 2496 2183 
z
" transform="scale(0.015625)"/>
      </defs>
      <use xlink:href="#CMR17-79" transform="scale(0.996264)"/>
     </g>
    </g>
   </g>
   <g id="line2d_149">
    <path d="M 62.1 253.554333 
L 115.671351 253.418804 
L 135.327027 253.162737 
L 148.045405 252.789276 
L 157.680541 252.289776 
L 165.388649 251.668707 
L 171.555135 250.962818 
L 176.950811 250.136201 
L 181.961081 249.140312 
L 186.200541 248.08103 
L 190.054595 246.906958 
L 193.908649 245.492044 
L 197.377297 243.97606 
L 200.460541 242.405086 
L 203.543784 240.594502 
L 206.627027 238.513914 
L 209.324865 236.446652 
L 212.022703 234.125754 
L 214.720541 231.528703 
L 217.418378 228.633372 
L 220.116216 225.418789 
L 222.814054 221.866049 
L 225.511892 217.959393 
L 228.20973 213.687382 
L 231.292973 208.350502 
L 234.376216 202.531311 
L 237.459459 196.245943 
L 240.928108 188.657679 
L 244.782162 179.667397 
L 249.407027 168.286346 
L 266.364865 125.880565 
L 270.218919 117.17199 
L 273.687568 109.882098 
L 276.770811 103.885396 
L 279.854054 98.366681 
L 282.937297 93.333208 
L 285.635135 89.323111 
L 288.332973 85.670695 
L 291.030811 82.361308 
L 293.728649 79.37683 
L 296.426486 76.696779 
L 299.124324 74.299273 
L 302.207568 71.87641 
L 305.290811 69.759839 
L 308.374054 67.917208 
L 311.457297 66.317874 
L 314.925946 64.774033 
L 318.394595 63.465098 
L 322.248649 62.246133 
L 326.488108 61.145837 
L 331.112973 60.181701 
L 336.123243 59.360574 
L 341.904324 58.638317 
L 348.841622 58.010058 
L 356.935135 57.510146 
L 366.955676 57.120208 
L 380.444865 56.831564 
L 400.485946 56.647183 
L 438.641081 56.560295 
L 447.12 56.555346 
L 447.12 56.555346 
" clip-path="url(#pdf3e6a8b2a)" style="fill: none; stroke: #000000; stroke-width: 2; stroke-linecap: square"/>
   </g>
   <g id="line2d_150">
    <path d="M 80.916099 308.039286 
L 368.523987 -1 
L 368.523987 -1 
" clip-path="url(#pdf3e6a8b2a)" style="fill: none; stroke: #0000ff; stroke-width: 2; stroke-linecap: square"/>
   </g>
   <g id="line2d_151">
    <path d="M 62.1 199.679791 
L 447.12 0.265788 
L 447.12 0.265788 
" clip-path="url(#pdf3e6a8b2a)" style="fill: none; stroke-dasharray: 6.4,1.6,1,1.6; stroke-dashoffset: 0; stroke: #ff0000; stroke-opacity: 0.5"/>
   </g>
   <g id="line2d_152">
    <path d="M 176.098453 308.039286 
L 334.697271 -1 
L 334.697271 -1 
" clip-path="url(#pdf3e6a8b2a)" style="fill: none; stroke-dasharray: 6.4,1.6,1,1.6; stroke-dashoffset: 0; stroke: #008000; stroke-opacity: 0.5"/>
   </g>
   <g id="line2d_153">
    <path d="M 130.559741 308.039286 
L 381.149944 -1 
L 381.149944 -1 
" clip-path="url(#pdf3e6a8b2a)" style="fill: none; stroke-dasharray: 6.4,1.6,1,1.6; stroke-dashoffset: 0; stroke: #808080; stroke-opacity: 0.5"/>
   </g>
   <g id="patch_3">
    <path d="M 62.1 273.264964 
L 62.1 36.844714 
" style="fill: none; stroke: #000000; stroke-width: 0.8; stroke-linejoin: miter; stroke-linecap: square"/>
   </g>
   <g id="patch_4">
    <path d="M 447.12 273.264964 
L 447.12 36.844714 
" style="fill: none; stroke: #000000; stroke-width: 0.8; stroke-linejoin: miter; stroke-linecap: square"/>
   </g>
   <g id="patch_5">
    <path d="M 62.1 273.264964 
L 447.12 273.264964 
" style="fill: none; stroke: #000000; stroke-width: 0.8; stroke-linejoin: miter; stroke-linecap: square"/>
   </g>
   <g id="patch_6">
    <path d="M 62.1 36.844714 
L 447.12 36.844714 
" style="fill: none; stroke: #000000; stroke-width: 0.8; stroke-linejoin: miter; stroke-linecap: square"/>
   </g>
   <g id="legend_1">
    <g id="patch_7">
     <path d="M 67.7 110.963555 
L 194.390409 110.963555 
Q 195.990409 110.963555 195.990409 109.363555 
L 195.990409 42.444714 
Q 195.990409 40.844714 194.390409 40.844714 
L 67.7 40.844714 
Q 66.1 40.844714 66.1 42.444714 
L 66.1 109.363555 
Q 66.1 110.963555 67.7 110.963555 
z
" style="fill: #ffffff; opacity: 0.8; stroke: #cccccc; stroke-linejoin: miter"/>
    </g>
    <g id="line2d_154">
     <path d="M 69.3 47.222298 
L 77.3 47.222298 
L 85.3 47.222298 
" style="fill: none; stroke: #000000; stroke-width: 2; stroke-linecap: square"/>
    </g>
    <g id="text_19">
     <!-- $f\left(x\right)$ -->
     <g transform="translate(91.7 50.022298) scale(0.08 -0.08)">
      <defs>
       <path id="CMMI12-66" d="M 2854 2566 
C 2982 2566 3034 2566 3034 2687 
C 3034 2752 2982 2752 2867 2752 
L 2349 2752 
C 2470 3398 2560 3846 2611 4051 
C 2650 4204 2784 4351 2950 4351 
C 3085 4351 3219 4294 3283 4236 
C 3034 4211 2957 4025 2957 3916 
C 2957 3788 3053 3712 3174 3712 
C 3302 3712 3494 3820 3494 4064 
C 3494 4332 3226 4480 2944 4480 
C 2669 4480 2400 4275 2272 4025 
C 2157 3801 2093 3573 1946 2752 
L 1517 2752 
C 1395 2752 1331 2752 1331 2636 
C 1331 2566 1370 2566 1498 2566 
L 1907 2566 
C 1792 1977 1530 545 1382 -132 
C 1274 -685 1178 -1152 858 -1152 
C 838 -1152 653 -1152 538 -1031 
C 864 -1005 864 -724 864 -717 
C 864 -589 768 -512 646 -512 
C 518 -512 326 -621 326 -865 
C 326 -1140 608 -1280 858 -1280 
C 1510 -1280 1779 -113 1850 203 
C 1965 691 2278 2376 2310 2566 
L 2854 2566 
z
" transform="scale(0.015625)"/>
       <path id="CMR17-28" d="M 1958 -1562 
C 1958 -1556 1958 -1543 1939 -1524 
C 1645 -1223 858 -403 858 1596 
C 858 3595 1632 4408 1946 4729 
C 1946 4735 1958 4748 1958 4767 
C 1958 4787 1939 4800 1914 4800 
C 1843 4800 1299 4325 986 3620 
C 666 2909 576 2218 576 1603 
C 576 1141 621 360 1005 -467 
C 1312 -1133 1837 -1600 1914 -1600 
C 1946 -1600 1958 -1588 1958 -1562 
z
" transform="scale(0.015625)"/>
       <path id="CMMI12-78" d="M 3034 2624 
C 2829 2585 2752 2431 2752 2310 
C 2752 2156 2874 2105 2963 2105 
C 3155 2105 3290 2271 3290 2444 
C 3290 2694 2982 2816 2714 2816 
C 2323 2816 2106 2451 2048 2329 
C 1901 2790 1504 2816 1389 2816 
C 736 2816 390 1993 390 1849 
C 390 1823 416 1790 461 1790 
C 512 1790 525 1829 538 1855 
C 755 2572 1184 2687 1370 2687 
C 1658 2687 1715 2438 1715 2284 
C 1715 2143 1677 1993 1600 1678 
L 1382 778 
C 1286 390 1101 64 762 64 
C 730 64 570 64 435 126 
C 666 166 717 358 717 435 
C 717 563 621 640 499 640 
C 346 640 179 505 179 300 
C 179 57 480 -64 755 -64 
C 1062 -64 1280 153 1414 415 
C 1517 64 1837 -64 2074 -64 
C 2726 -64 3072 751 3072 896 
C 3072 929 3046 955 3008 955 
C 2950 955 2944 922 2925 870 
C 2752 300 2381 64 2093 64 
C 1869 64 1747 204 1747 467 
C 1747 607 1773 712 1875 1146 
L 2099 2039 
C 2195 2425 2413 2687 2707 2687 
C 2720 2687 2899 2687 3034 2624 
z
" transform="scale(0.015625)"/>
       <path id="CMR17-29" d="M 1683 1596 
C 1683 2057 1638 2839 1254 3665 
C 947 4332 422 4800 346 4800 
C 326 4800 301 4793 301 4761 
C 301 4748 307 4742 314 4729 
C 621 4408 1402 3595 1402 1603 
C 1402 -396 627 -1210 314 -1530 
C 307 -1543 301 -1549 301 -1562 
C 301 -1594 326 -1600 346 -1600 
C 416 -1600 960 -1127 1274 -422 
C 1594 289 1683 981 1683 1596 
z
" transform="scale(0.015625)"/>
      </defs>
      <use xlink:href="#CMMI12-66" transform="scale(0.996264)"/>
      <use xlink:href="#CMR17-28" transform="translate(75.32471 0.003177) scale(0.996264)"/>
      <use xlink:href="#CMMI12-78" transform="translate(110.605478 0) scale(0.996264)"/>
      <use xlink:href="#CMR17-29" transform="translate(166.039537 0.003177) scale(0.996264)"/>
     </g>
    </g>
    <g id="line2d_155">
     <path d="M 69.3 58.814826 
L 77.3 58.814826 
L 85.3 58.814826 
" style="fill: none; stroke: #0000ff; stroke-width: 2; stroke-linecap: square"/>
    </g>
    <g id="text_20">
     <!-- Recta tangente en $x=12.0$ -->
     <g transform="translate(91.7 61.614826) scale(0.08 -0.08)">
      <defs>
       <path id="CMR17-52" d="M 2509 2156 
C 3117 2278 3629 2689 3629 3203 
C 3629 3806 2950 4352 2054 4352 
L 333 4352 
L 333 4185 
C 774 4185 845 4185 845 3896 
L 845 428 
C 845 140 774 140 333 140 
L 333 -26 
C 518 -13 851 -13 1050 -13 
C 1248 -13 1581 -13 1766 -26 
L 1766 140 
C 1325 140 1254 140 1254 428 
L 1254 2112 
L 2003 2112 
C 2368 2112 2573 1964 2662 1881 
C 2918 1632 2918 1459 2918 1024 
C 2918 595 2918 377 3110 160 
C 3354 -103 3680 -128 3821 -128 
C 4294 -128 4365 403 4365 512 
C 4365 550 4365 595 4307 595 
C 4256 595 4250 556 4250 531 
C 4218 115 4032 -26 3834 -26 
C 3482 -26 3443 377 3405 768 
C 3386 902 3373 998 3360 1139 
C 3322 1459 3270 1926 2509 2156 
z
M 1984 2214 
L 1254 2214 
L 1254 3935 
C 1254 4153 1267 4185 1523 4185 
L 1990 4185 
C 2522 4185 3142 3999 3142 3203 
C 3142 2374 2464 2214 1984 2214 
z
" transform="scale(0.015625)"/>
       <path id="CMR17-65" d="M 2438 1503 
C 2464 1529 2464 1542 2464 1606 
C 2464 2251 2118 2816 1389 2816 
C 710 2816 173 2175 173 1394 
C 173 554 781 -64 1459 -64 
C 2176 -64 2458 619 2458 755 
C 2458 800 2419 800 2406 800 
C 2362 800 2355 787 2330 709 
C 2189 270 1837 51 1504 51 
C 1229 51 954 206 781 490 
C 582 819 582 1200 582 1503 
L 2438 1503 
z
M 589 1600 
C 634 2511 1126 2713 1382 2713 
C 1818 2713 2112 2308 2118 1600 
L 589 1600 
z
" transform="scale(0.015625)"/>
       <path id="CMR17-63" d="M 2234 2240 
C 2112 2240 1933 2240 1933 2015 
C 1933 1836 2080 1785 2163 1785 
C 2208 1785 2394 1804 2394 2028 
C 2394 2476 1958 2816 1466 2816 
C 787 2816 211 2201 211 1379 
C 211 521 813 -64 1466 -64 
C 2259 -64 2458 676 2458 747 
C 2458 773 2451 792 2406 792 
C 2362 792 2355 786 2330 702 
C 2163 180 1798 51 1523 51 
C 1114 51 621 431 621 1385 
C 621 2358 1094 2700 1472 2700 
C 1722 2700 2093 2582 2234 2240 
z
" transform="scale(0.015625)"/>
       <path id="CMR17-74" d="M 966 2585 
L 1862 2585 
L 1862 2752 
L 966 2752 
L 966 3968 
L 851 3968 
C 838 3292 614 2700 70 2687 
L 70 2585 
L 627 2585 
L 627 778 
C 627 655 627 -64 1370 -64 
C 1747 -64 1965 308 1965 784 
L 1965 1151 
L 1850 1151 
L 1850 790 
C 1850 347 1677 51 1408 51 
C 1222 51 966 179 966 765 
L 966 2585 
z
" transform="scale(0.015625)"/>
       <path id="CMR17-61" d="M 2304 1656 
C 2304 2048 2304 2275 2035 2534 
C 1798 2751 1523 2816 1306 2816 
C 800 2816 435 2408 435 1977 
C 435 1740 627 1728 666 1728 
C 749 1728 896 1779 896 1958 
C 896 2118 774 2188 666 2188 
C 640 2188 608 2182 589 2176 
C 723 2594 1069 2713 1293 2713 
C 1613 2713 1965 2421 1965 1875 
L 1965 1632 
C 1587 1619 1133 1568 774 1373 
C 371 1147 256 822 256 576 
C 256 77 832 -64 1171 -64 
C 1523 -64 1850 135 1990 505 
C 2003 219 2182 -39 2464 -39 
C 2598 -39 2938 51 2938 563 
L 2938 926 
L 2822 926 
L 2822 557 
C 2822 161 2650 109 2566 109 
C 2304 109 2304 446 2304 732 
L 2304 1656 
z
M 1965 887 
C 1965 323 1568 38 1216 38 
C 896 38 646 278 646 576 
C 646 771 730 1114 1101 1322 
C 1408 1497 1760 1523 1965 1536 
L 1965 887 
z
" transform="scale(0.015625)"/>
       <path id="CMR17-6e" d="M 2656 1954 
C 2656 2282 2592 2816 1837 2816 
C 1331 2816 1069 2424 973 2166 
L 966 2166 
L 966 2816 
L 211 2745 
L 211 2578 
C 589 2578 646 2540 646 2231 
L 646 443 
C 646 198 621 166 211 166 
L 211 0 
C 365 12 646 12 813 12 
C 979 12 1267 12 1421 0 
L 1421 166 
C 1011 166 986 192 986 443 
L 986 1678 
C 986 2269 1344 2713 1792 2713 
C 2266 2713 2317 2289 2317 1980 
L 2317 443 
C 2317 198 2291 166 1882 166 
L 1882 0 
C 2035 12 2317 12 2483 12 
C 2650 12 2938 12 3091 0 
L 3091 166 
C 2682 166 2656 192 2656 443 
L 2656 1954 
z
" transform="scale(0.015625)"/>
       <path id="CMR17-67" d="M 710 1165 
C 832 1068 1043 960 1299 960 
C 1805 960 2240 1359 2240 1895 
C 2240 2063 2189 2321 1997 2521 
C 2176 2713 2438 2777 2586 2777 
C 2611 2777 2650 2777 2682 2758 
C 2656 2751 2598 2726 2598 2623 
C 2598 2540 2656 2483 2739 2483 
C 2835 2483 2886 2547 2886 2630 
C 2886 2751 2790 2880 2586 2880 
C 2330 2880 2106 2758 1926 2591 
C 1734 2764 1504 2828 1299 2828 
C 794 2828 358 2431 358 1895 
C 358 1527 570 1294 634 1230 
C 442 1004 442 742 442 710 
C 442 544 506 300 723 166 
C 390 82 128 -184 128 -517 
C 128 -996 736 -1344 1466 -1344 
C 2170 -1344 2803 -1009 2803 -510 
C 2803 384 1856 384 1363 384 
C 1216 384 954 384 922 390 
C 723 422 589 601 589 825 
C 589 883 589 1024 710 1165 
z
M 1299 1068 
C 736 1068 736 1766 736 1895 
C 736 2024 736 2719 1299 2719 
C 1862 2719 1862 2024 1862 1895 
C 1862 1766 1862 1068 1299 1068 
z
M 1466 -1236 
C 826 -1236 384 -883 384 -517 
C 384 -311 493 -118 634 -11 
C 794 102 858 102 1293 102 
C 1818 102 2547 102 2547 -517 
C 2547 -883 2106 -1236 1466 -1236 
z
" transform="scale(0.015625)"/>
       <path id="CMR17-3d" d="M 4115 2048 
C 4211 2048 4307 2048 4307 2156 
C 4307 2272 4198 2272 4090 2272 
L 512 2272 
C 403 2272 294 2272 294 2156 
C 294 2048 390 2048 486 2048 
L 4115 2048 
z
M 4090 927 
C 4198 927 4307 927 4307 1043 
C 4307 1152 4211 1152 4115 1152 
L 486 1152 
C 390 1152 294 1152 294 1043 
C 294 927 403 927 512 927 
L 4090 927 
z
" transform="scale(0.015625)"/>
      </defs>
      <use xlink:href="#CMR17-52" transform="scale(0.996264)"/>
      <use xlink:href="#CMR17-65" transform="translate(67.791102 0) scale(0.996264)"/>
      <use xlink:href="#CMR17-63" transform="translate(108.276762 0) scale(0.996264)"/>
      <use xlink:href="#CMR17-74" transform="translate(148.762423 0) scale(0.996264)"/>
      <use xlink:href="#CMR17-61" transform="translate(184.043191 0) scale(0.996264)"/>
      <use xlink:href="#CMR17-74" transform="translate(259.809634 0) scale(0.996264)"/>
      <use xlink:href="#CMR17-61" transform="translate(295.090402 0) scale(0.996264)"/>
      <use xlink:href="#CMR17-6e" transform="translate(340.780879 0) scale(0.996264)"/>
      <use xlink:href="#CMR17-67" transform="translate(391.676249 0) scale(0.996264)"/>
      <use xlink:href="#CMR17-65" transform="translate(437.366726 0) scale(0.996264)"/>
      <use xlink:href="#CMR17-6e" transform="translate(477.852386 0) scale(0.996264)"/>
      <use xlink:href="#CMR17-74" transform="translate(526.145302 0) scale(0.996264)"/>
      <use xlink:href="#CMR17-65" transform="translate(561.42607 0) scale(0.996264)"/>
      <use xlink:href="#CMR17-65" transform="translate(631.987697 0) scale(0.996264)"/>
      <use xlink:href="#CMR17-6e" transform="translate(672.473357 0) scale(0.996264)"/>
      <use xlink:href="#CMMI12-78" transform="translate(753.444693 0) scale(0.996264)"/>
      <use xlink:href="#CMR17-3d" transform="translate(836.552762 0) scale(0.996264)"/>
      <use xlink:href="#CMR17-31" transform="translate(935.941559 0) scale(0.996264)"/>
      <use xlink:href="#CMR17-32" transform="translate(981.632036 0) scale(0.996264)"/>
      <use xlink:href="#CMMI12-3a" transform="translate(1027.322513 0) scale(0.996264)"/>
      <use xlink:href="#CMR17-30" transform="translate(1054.41969 0) scale(0.996264)"/>
     </g>
    </g>
    <g id="line2d_156">
     <path d="M 69.3 69.964572 
L 77.3 69.964572 
L 85.3 69.964572 
" style="fill: none; stroke-dasharray: 6.4,1.6,1,1.6; stroke-dashoffset: 0; stroke: #ff0000; stroke-opacity: 0.5"/>
    </g>
    <g id="text_21">
     <!-- Forward -->
     <g transform="translate(91.7 72.764572) scale(0.08 -0.08)">
      <defs>
       <path id="CMR17-46" d="M 3482 4339 
L 326 4339 
L 326 4172 
C 768 4172 838 4172 838 3883 
L 838 450 
C 838 166 768 166 326 166 
L 326 0 
C 512 12 870 12 1069 12 
C 1331 12 1638 12 1901 0 
L 1901 166 
L 1760 166 
C 1274 166 1261 229 1261 456 
L 1261 2073 
L 1837 2073 
C 2432 2073 2490 1865 2490 1334 
L 2605 1334 
L 2605 2991 
L 2490 2991 
C 2490 2451 2432 2240 1837 2240 
L 1261 2240 
L 1261 3922 
C 1261 4140 1274 4172 1530 4172 
L 2355 4172 
C 3322 4172 3430 3774 3520 2920 
L 3635 2920 
L 3482 4339 
z
" transform="scale(0.015625)"/>
       <path id="CMR17-6f" d="M 2758 1356 
C 2758 2176 2163 2816 1466 2816 
C 768 2816 173 2176 173 1356 
C 173 550 768 -64 1466 -64 
C 2163 -64 2758 550 2758 1356 
z
M 1466 51 
C 1165 51 909 230 762 480 
C 602 768 582 1126 582 1408 
C 582 1676 595 2009 762 2297 
C 890 2508 1139 2713 1466 2713 
C 1754 2713 1997 2553 2150 2329 
C 2349 2028 2349 1606 2349 1408 
C 2349 1158 2336 774 2163 467 
C 1984 172 1709 51 1466 51 
z
" transform="scale(0.015625)"/>
       <path id="CMR17-72" d="M 960 1517 
C 960 2134 1222 2713 1702 2713 
C 1747 2713 1792 2707 1837 2687 
C 1837 2687 1696 2642 1696 2475 
C 1696 2321 1818 2257 1914 2257 
C 1990 2257 2131 2302 2131 2482 
C 2131 2687 1926 2816 1709 2816 
C 1222 2816 1011 2340 947 2115 
L 941 2115 
L 941 2816 
L 198 2745 
L 198 2578 
C 576 2578 634 2540 634 2231 
L 634 443 
C 634 198 608 166 198 166 
L 198 0 
C 352 12 646 12 813 12 
C 998 12 1325 12 1498 0 
L 1498 166 
C 1037 166 960 166 960 455 
L 960 1517 
z
" transform="scale(0.015625)"/>
       <path id="CMR17-77" d="M 3725 2186 
C 3853 2566 4109 2579 4205 2585 
L 4205 2752 
C 4077 2745 3949 2739 3821 2739 
C 3699 2739 3424 2739 3315 2752 
L 3315 2585 
C 3514 2572 3622 2456 3622 2296 
C 3622 2251 3610 2193 3597 2148 
L 2995 398 
L 2342 2296 
C 2330 2341 2310 2392 2310 2418 
C 2310 2585 2528 2585 2630 2585 
L 2630 2752 
C 2483 2739 2214 2739 2061 2739 
C 1901 2739 1734 2739 1587 2752 
L 1587 2585 
C 1939 2585 1939 2572 2074 2167 
L 1485 443 
L 851 2302 
C 819 2386 819 2399 819 2418 
C 819 2585 1037 2585 1139 2585 
L 1139 2752 
C 986 2739 717 2739 557 2739 
C 416 2739 198 2739 64 2752 
L 64 2585 
C 346 2585 416 2566 486 2353 
L 1274 38 
C 1299 -45 1318 -64 1370 -64 
C 1414 -64 1440 -52 1472 44 
L 2131 1987 
L 2797 44 
C 2829 -52 2854 -64 2899 -64 
C 2950 -64 2970 -45 2995 38 
L 3725 2186 
z
" transform="scale(0.015625)"/>
       <path id="CMR17-64" d="M 1869 4345 
L 1869 4179 
C 2246 4179 2304 4141 2304 3843 
L 2304 2371 
C 2278 2403 2016 2816 1498 2816 
C 845 2816 211 2228 211 1376 
C 211 529 806 -64 1434 -64 
C 1978 -64 2259 361 2291 406 
L 2291 -64 
L 3066 -13 
L 3066 154 
C 2688 154 2630 193 2630 503 
L 2630 4416 
L 1869 4345 
z
M 2291 762 
C 2291 568 2176 393 2029 264 
C 1811 70 1594 38 1472 38 
C 1286 38 621 135 621 1369 
C 621 2636 1363 2713 1530 2713 
C 1824 2713 2061 2545 2208 2313 
C 2291 2177 2291 2157 2291 2041 
L 2291 762 
z
" transform="scale(0.015625)"/>
      </defs>
      <use xlink:href="#CMR17-46" transform="scale(0.996264)"/>
      <use xlink:href="#CMR17-6f" transform="translate(52.176591 0) scale(0.996264)"/>
      <use xlink:href="#CMR17-72" transform="translate(97.867068 0) scale(0.996264)"/>
      <use xlink:href="#CMR17-77" transform="translate(133.147836 0) scale(0.996264)"/>
      <use xlink:href="#CMR17-61" transform="translate(197.055263 0) scale(0.996264)"/>
      <use xlink:href="#CMR17-72" transform="translate(242.74574 0) scale(0.996264)"/>
      <use xlink:href="#CMR17-64" transform="translate(278.026508 0) scale(0.996264)"/>
     </g>
    </g>
    <g id="line2d_157">
     <path d="M 69.3 81.114318 
L 77.3 81.114318 
L 85.3 81.114318 
" style="fill: none; stroke-dasharray: 6.4,1.6,1,1.6; stroke-dashoffset: 0; stroke: #008000; stroke-opacity: 0.5"/>
    </g>
    <g id="text_22">
     <!-- Backward -->
     <g transform="translate(91.7 83.914318) scale(0.08 -0.08)">
      <defs>
       <path id="CMR17-42" d="M 333 4352 
L 333 4185 
C 774 4185 845 4185 845 3897 
L 845 451 
C 845 166 774 166 333 166 
L 333 0 
L 2534 0 
C 3354 0 3885 578 3885 1155 
C 3885 1726 3360 2214 2675 2259 
C 3290 2380 3718 2790 3718 3276 
C 3718 3808 3194 4352 2368 4352 
L 333 4352 
z
M 1248 2304 
L 1248 3936 
C 1248 4153 1261 4185 1517 4185 
L 2336 4185 
C 2970 4185 3251 3673 3251 3276 
C 3251 2790 2861 2304 2170 2304 
L 1248 2304 
z
M 1517 166 
C 1261 166 1248 198 1248 413 
L 1248 2201 
L 2432 2201 
C 3091 2201 3411 1624 3411 1161 
C 3411 698 3046 166 2349 166 
L 1517 166 
z
" transform="scale(0.015625)"/>
       <path id="CMR17-6b" d="M 1670 1679 
C 1664 1692 1632 1730 1632 1749 
C 1632 1762 2086 2175 2144 2226 
C 2509 2532 2739 2563 2906 2570 
L 2906 2735 
C 2867 2735 2854 2735 2848 2729 
L 2534 2722 
C 2355 2722 2080 2722 1907 2735 
L 1907 2570 
C 1997 2563 2061 2513 2061 2423 
C 2061 2296 1933 2175 1926 2175 
L 960 1298 
L 960 4416 
L 198 4345 
L 198 4179 
C 576 4179 634 4141 634 3835 
L 634 439 
C 634 198 608 166 198 166 
L 198 0 
C 352 12 634 12 794 12 
C 954 12 1235 12 1389 0 
L 1389 166 
C 979 166 954 191 954 439 
L 954 1139 
L 1395 1540 
L 2042 586 
C 2118 471 2182 382 2182 299 
C 2182 185 2067 166 1990 166 
L 1990 0 
C 2144 12 2419 12 2579 12 
C 2694 12 2931 6 3040 0 
L 3040 166 
C 2739 166 2669 223 2477 503 
L 1670 1679 
z
" transform="scale(0.015625)"/>
      </defs>
      <use xlink:href="#CMR17-42" transform="scale(0.996264)"/>
      <use xlink:href="#CMR17-61" transform="translate(65.188754 0) scale(0.996264)"/>
      <use xlink:href="#CMR17-63" transform="translate(110.879232 0) scale(0.996264)"/>
      <use xlink:href="#CMR17-6b" transform="translate(148.762438 0) scale(0.996264)"/>
      <use xlink:href="#CMR17-77" transform="translate(197.055354 0) scale(0.996264)"/>
      <use xlink:href="#CMR17-61" transform="translate(260.962781 0) scale(0.996264)"/>
      <use xlink:href="#CMR17-72" transform="translate(306.653258 0) scale(0.996264)"/>
      <use xlink:href="#CMR17-64" transform="translate(341.934025 0) scale(0.996264)"/>
     </g>
    </g>
    <g id="line2d_158">
     <path d="M 69.3 92.264063 
L 77.3 92.264063 
L 85.3 92.264063 
" style="fill: none; stroke-dasharray: 6.4,1.6,1,1.6; stroke-dashoffset: 0; stroke: #808080; stroke-opacity: 0.5"/>
    </g>
    <g id="text_23">
     <!-- Centered -->
     <g transform="translate(91.7 95.064063) scale(0.08 -0.08)">
      <defs>
       <path id="CMR17-43" d="M 3974 4351 
C 3974 4467 3968 4473 3930 4473 
C 3904 4473 3898 4467 3853 4390 
L 3571 3849 
C 3258 4249 2874 4480 2381 4480 
C 1286 4480 294 3507 294 2179 
C 294 837 1286 -128 2387 -128 
C 3366 -128 3974 741 3974 1482 
C 3974 1547 3974 1573 3917 1573 
C 3866 1573 3866 1553 3859 1495 
C 3808 592 3168 38 2477 38 
C 1824 38 781 502 781 2179 
C 781 3862 1843 4313 2464 4313 
C 3187 4313 3712 3681 3834 2785 
C 3846 2707 3846 2695 3904 2695 
C 3974 2695 3974 2707 3974 2824 
L 3974 4351 
z
" transform="scale(0.015625)"/>
      </defs>
      <use xlink:href="#CMR17-43" transform="scale(0.996264)"/>
      <use xlink:href="#CMR17-65" transform="translate(66.509881 0) scale(0.996264)"/>
      <use xlink:href="#CMR17-6e" transform="translate(106.995541 0) scale(0.996264)"/>
      <use xlink:href="#CMR17-74" transform="translate(155.288457 0) scale(0.996264)"/>
      <use xlink:href="#CMR17-65" transform="translate(190.569225 0) scale(0.996264)"/>
      <use xlink:href="#CMR17-72" transform="translate(231.054885 0) scale(0.996264)"/>
      <use xlink:href="#CMR17-65" transform="translate(266.335653 0) scale(0.996264)"/>
      <use xlink:href="#CMR17-64" transform="translate(306.821313 0) scale(0.996264)"/>
     </g>
    </g>
    <g id="PathCollection_2">
     <g>
      <use xlink:href="#m5f292cbeab" x="77.3" y="104.113809" style="fill: #ff0000; stroke: #ff0000"/>
     </g>
    </g>
    <g id="text_24">
     <!-- Puntos de muestreo -->
     <g transform="translate(91.7 106.213809) scale(0.08 -0.08)">
      <defs>
       <path id="CMR17-50" d="M 1267 2048 
L 2291 2048 
C 3117 2048 3718 2583 3718 3187 
C 3718 3791 3130 4352 2291 4352 
L 333 4352 
L 333 4185 
C 774 4185 845 4185 845 3899 
L 845 453 
C 845 166 774 166 333 166 
L 333 0 
C 518 12 858 12 1056 12 
C 1254 12 1594 12 1779 0 
L 1779 166 
C 1338 166 1267 166 1267 453 
L 1267 2048 
z
M 1254 2182 
L 1254 3937 
C 1254 4153 1267 4185 1523 4185 
L 2170 4185 
C 2995 4185 3232 3715 3232 3187 
C 3232 2608 2950 2182 2170 2182 
L 1254 2182 
z
" transform="scale(0.015625)"/>
       <path id="CMR17-75" d="M 1882 2745 
L 1882 2579 
C 2259 2579 2317 2540 2317 2229 
L 2317 1053 
C 2317 510 2029 38 1555 38 
C 1030 38 986 355 986 691 
L 986 2816 
L 211 2745 
L 211 2579 
C 467 2579 640 2579 646 2320 
L 646 1079 
C 646 646 646 368 813 187 
C 896 103 1056 -64 1517 -64 
C 2061 -64 2272 400 2323 536 
L 2330 536 
L 2330 -64 
L 3091 -13 
L 3091 154 
C 2714 154 2656 193 2656 503 
L 2656 2816 
L 1882 2745 
z
" transform="scale(0.015625)"/>
       <path id="CMR17-73" d="M 1978 2688 
C 1978 2803 1971 2809 1933 2809 
C 1907 2809 1901 2803 1824 2707 
C 1805 2681 1747 2617 1728 2592 
C 1523 2809 1235 2816 1126 2816 
C 416 2816 160 2444 160 2073 
C 160 1497 813 1363 998 1324 
C 1402 1241 1542 1216 1677 1100 
C 1760 1024 1901 883 1901 652 
C 1901 384 1747 38 1158 38 
C 602 38 403 460 288 1024 
C 269 1113 269 1120 218 1120 
C 166 1120 160 1113 160 985 
L 160 64 
C 160 -52 166 -58 205 -58 
C 237 -58 243 -52 275 0 
C 314 57 410 211 448 275 
C 576 102 800 -64 1158 -64 
C 1792 -64 2131 281 2131 780 
C 2131 1107 1958 1280 1875 1356 
C 1683 1555 1459 1600 1190 1651 
C 838 1728 390 1817 390 2208 
C 390 2374 480 2726 1126 2726 
C 1811 2726 1850 2086 1862 1881 
C 1869 1849 1901 1843 1920 1843 
C 1978 1843 1978 1862 1978 1971 
L 1978 2688 
z
" transform="scale(0.015625)"/>
       <path id="CMR17-6d" d="M 4326 1954 
C 4326 2276 4269 2816 3507 2816 
C 3072 2816 2771 2520 2656 2173 
L 2650 2173 
C 2573 2700 2195 2816 1837 2816 
C 1331 2816 1069 2424 973 2166 
L 966 2166 
L 966 2816 
L 211 2745 
L 211 2578 
C 589 2578 646 2540 646 2231 
L 646 443 
C 646 198 621 166 211 166 
L 211 0 
C 365 12 646 12 813 12 
C 979 12 1267 12 1421 0 
L 1421 166 
C 1011 166 986 192 986 443 
L 986 1678 
C 986 2269 1344 2713 1792 2713 
C 2266 2713 2317 2289 2317 1980 
L 2317 443 
C 2317 198 2291 166 1882 166 
L 1882 0 
C 2035 12 2317 12 2483 12 
C 2650 12 2938 12 3091 0 
L 3091 166 
C 2682 166 2656 192 2656 443 
L 2656 1678 
C 2656 2269 3014 2713 3462 2713 
C 3936 2713 3987 2289 3987 1980 
L 3987 443 
C 3987 198 3962 166 3552 166 
L 3552 0 
C 3706 12 3987 12 4154 12 
C 4320 12 4608 12 4762 0 
L 4762 166 
C 4352 166 4326 192 4326 443 
L 4326 1954 
z
" transform="scale(0.015625)"/>
      </defs>
      <use xlink:href="#CMR17-50" transform="scale(0.996264)"/>
      <use xlink:href="#CMR17-75" transform="translate(62.586301 0) scale(0.996264)"/>
      <use xlink:href="#CMR17-6e" transform="translate(113.48167 0) scale(0.996264)"/>
      <use xlink:href="#CMR17-74" transform="translate(161.774586 0) scale(0.996264)"/>
      <use xlink:href="#CMR17-6f" transform="translate(197.055354 0) scale(0.996264)"/>
      <use xlink:href="#CMR17-73" transform="translate(242.745831 0) scale(0.996264)"/>
      <use xlink:href="#CMR17-64" transform="translate(308.623135 0) scale(0.996264)"/>
      <use xlink:href="#CMR17-65" transform="translate(359.518505 0) scale(0.996264)"/>
      <use xlink:href="#CMR17-6d" transform="translate(430.080132 0) scale(0.996264)"/>
      <use xlink:href="#CMR17-75" transform="translate(504.397268 0) scale(0.996264)"/>
      <use xlink:href="#CMR17-65" transform="translate(555.292637 0) scale(0.996264)"/>
      <use xlink:href="#CMR17-73" transform="translate(595.778298 0) scale(0.996264)"/>
      <use xlink:href="#CMR17-74" transform="translate(631.579635 0) scale(0.996264)"/>
      <use xlink:href="#CMR17-72" transform="translate(666.860403 0) scale(0.996264)"/>
      <use xlink:href="#CMR17-65" transform="translate(702.141171 0) scale(0.996264)"/>
      <use xlink:href="#CMR17-6f" transform="translate(742.626832 0) scale(0.996264)"/>
     </g>
    </g>
   </g>
  </g>
 </g>
 <defs>
  <clipPath id="pdf3e6a8b2a">
   <rect x="62.1" y="36.844714" width="385.02" height="236.42025"/>
  </clipPath>
 </defs>
</svg>
