<?xml version="1.0" encoding="utf-8" standalone="no"?>
<!DOCTYPE svg PUBLIC "-//W3C//DTD SVG 1.1//EN"
  "http://www.w3.org/Graphics/SVG/1.1/DTD/svg11.dtd">
<svg xmlns:xlink="http://www.w3.org/1999/xlink" width="441.30423pt" height="290.116151pt" viewBox="0 0 441.30423 290.116151" xmlns="http://www.w3.org/2000/svg" version="1.1">
 <metadata>
  <rdf:RDF xmlns:dc="http://purl.org/dc/elements/1.1/" xmlns:cc="http://creativecommons.org/ns#" xmlns:rdf="http://www.w3.org/1999/02/22-rdf-syntax-ns#">
   <cc:Work>
    <dc:type rdf:resource="http://purl.org/dc/dcmitype/StillImage"/>
    <dc:date>2025-03-27T13:02:38.348903</dc:date>
    <dc:format>image/svg+xml</dc:format>
    <dc:creator>
     <cc:Agent>
      <dc:title>Matplotlib v3.10.1, https://matplotlib.org/</dc:title>
     </cc:Agent>
    </dc:creator>
   </cc:Work>
  </rdf:RDF>
 </metadata>
 <defs>
  <style type="text/css">*{stroke-linejoin: round; stroke-linecap: butt}</style>
 </defs>
 <g id="figure_1">
  <g id="patch_1">
   <path d="M 0 290.116151 
L 441.30423 290.116151 
L 441.30423 0 
L 0 0 
z
" style="fill: #ffffff"/>
  </g>
  <g id="axes_1">
   <g id="patch_2">
    <path d="M 44.102895 247.12025 
L 429.122895 247.12025 
L 429.122895 10.7 
L 44.102895 10.7 
z
" style="fill: #ffffff"/>
   </g>
   <g id="PathCollection_1">
    <defs>
     <path id="m73e9169946" d="M 0 3.535534 
C 0.937635 3.535534 1.836992 3.163008 2.5 2.5 
C 3.163008 1.836992 3.535534 0.937635 3.535534 0 
C 3.535534 -0.937635 3.163008 -1.836992 2.5 -2.5 
C 1.836992 -3.163008 0.937635 -3.535534 0 -3.535534 
C -0.937635 -3.535534 -1.836992 -3.163008 -2.5 -2.5 
C -3.163008 -1.836992 -3.535534 -0.937635 -3.535534 0 
C -3.535534 0.937635 -3.163008 1.836992 -2.5 2.5 
C -1.836992 3.163008 -0.937635 3.535534 0 3.535534 
z
" style="stroke: #ff0000"/>
    </defs>
    <g clip-path="url(#pc8e96cc104)">
     <use xlink:href="#m73e9169946" x="44.102895" y="176.165474" style="fill: #ff0000; stroke: #ff0000"/>
     <use xlink:href="#m73e9169946" x="47.457882" y="176.407234" style="fill: #ff0000; stroke: #ff0000"/>
     <use xlink:href="#m73e9169946" x="55.273049" y="177.182198" style="fill: #ff0000; stroke: #ff0000"/>
     <use xlink:href="#m73e9169946" x="67.339884" y="178.652858" style="fill: #ff0000; stroke: #ff0000"/>
     <use xlink:href="#m73e9169946" x="83.374657" y="180.935983" style="fill: #ff0000; stroke: #ff0000"/>
     <use xlink:href="#m73e9169946" x="103.001252" y="183.834438" style="fill: #ff0000; stroke: #ff0000"/>
     <use xlink:href="#m73e9169946" x="125.75943" y="185.296063" style="fill: #ff0000; stroke: #ff0000"/>
     <use xlink:href="#m73e9169946" x="151.116108" y="153.598385" style="fill: #ff0000; stroke: #ff0000"/>
     <use xlink:href="#m73e9169946" x="178.476615" y="57.787441" style="fill: #ff0000; stroke: #ff0000"/>
     <use xlink:href="#m73e9169946" x="207.200139" y="44.772888" style="fill: #ff0000; stroke: #ff0000"/>
     <use xlink:href="#m73e9169946" x="236.612895" y="40.80286" style="fill: #ff0000; stroke: #ff0000"/>
     <use xlink:href="#m73e9169946" x="266.025527" y="37.011881" style="fill: #ff0000; stroke: #ff0000"/>
     <use xlink:href="#m73e9169946" x="294.748974" y="45.04143" style="fill: #ff0000; stroke: #ff0000"/>
     <use xlink:href="#m73e9169946" x="322.109774" y="139.879038" style="fill: #ff0000; stroke: #ff0000"/>
     <use xlink:href="#m73e9169946" x="347.466205" y="173.89831" style="fill: #ff0000; stroke: #ff0000"/>
     <use xlink:href="#m73e9169946" x="370.22466" y="176.222139" style="fill: #ff0000; stroke: #ff0000"/>
     <use xlink:href="#m73e9169946" x="389.851132" y="176.845889" style="fill: #ff0000; stroke: #ff0000"/>
     <use xlink:href="#m73e9169946" x="405.885906" y="176.936729" style="fill: #ff0000; stroke: #ff0000"/>
     <use xlink:href="#m73e9169946" x="417.952771" y="176.659012" style="fill: #ff0000; stroke: #ff0000"/>
     <use xlink:href="#m73e9169946" x="425.767907" y="176.310777" style="fill: #ff0000; stroke: #ff0000"/>
     <use xlink:href="#m73e9169946" x="429.122895" y="176.165474" style="fill: #ff0000; stroke: #ff0000"/>
    </g>
   </g>
   <g id="matplotlib.axis_1">
    <g id="xtick_1">
     <g id="line2d_1">
      <path d="M 44.102895 247.12025 
L 44.102895 10.7 
" clip-path="url(#pc8e96cc104)" style="fill: none; stroke-dasharray: 0.35,0.5775; stroke-dashoffset: 0; stroke: #b0b0b0; stroke-width: 0.35"/>
     </g>
     <g id="line2d_2">
      <defs>
       <path id="med6f9e374c" d="M 0 0 
L 0 3.5 
" style="stroke: #000000; stroke-width: 0.8"/>
      </defs>
      <g>
       <use xlink:href="#med6f9e374c" x="44.102895" y="247.12025" style="stroke: #000000; stroke-width: 0.8"/>
      </g>
     </g>
     <g id="line2d_3">
      <defs>
       <path id="md120f9b746" d="M 0 0 
L 0 -3.5 
" style="stroke: #000000; stroke-width: 0.8"/>
      </defs>
      <g>
       <use xlink:href="#md120f9b746" x="44.102895" y="10.7" style="stroke: #000000; stroke-width: 0.8"/>
      </g>
     </g>
     <g id="text_1">
      <!-- $\mathdefault{0}$ -->
      <g transform="translate(41.612227 261.038748) scale(0.1 -0.1)">
       <defs>
        <path id="CMR17-30" d="M 2688 2038 
C 2688 2430 2682 3099 2413 3613 
C 2176 4063 1798 4224 1466 4224 
C 1158 4224 768 4082 525 3620 
C 269 3137 243 2539 243 2038 
C 243 1671 250 1112 448 623 
C 723 -39 1216 -128 1466 -128 
C 1760 -128 2208 -7 2470 604 
C 2662 1048 2688 1568 2688 2038 
z
M 1466 -26 
C 1056 -26 813 328 723 816 
C 653 1196 653 1749 653 2109 
C 653 2604 653 3015 736 3407 
C 858 3954 1216 4121 1466 4121 
C 1728 4121 2067 3947 2189 3420 
C 2272 3054 2278 2623 2278 2109 
C 2278 1691 2278 1176 2202 797 
C 2067 96 1690 -26 1466 -26 
z
" transform="scale(0.015625)"/>
       </defs>
       <use xlink:href="#CMR17-30" transform="scale(0.996264)"/>
      </g>
     </g>
    </g>
    <g id="xtick_2">
     <g id="line2d_4">
      <path d="M 121.106895 247.12025 
L 121.106895 10.7 
" clip-path="url(#pc8e96cc104)" style="fill: none; stroke-dasharray: 0.35,0.5775; stroke-dashoffset: 0; stroke: #b0b0b0; stroke-width: 0.35"/>
     </g>
     <g id="line2d_5">
      <g>
       <use xlink:href="#med6f9e374c" x="121.106895" y="247.12025" style="stroke: #000000; stroke-width: 0.8"/>
      </g>
     </g>
     <g id="line2d_6">
      <g>
       <use xlink:href="#md120f9b746" x="121.106895" y="10.7" style="stroke: #000000; stroke-width: 0.8"/>
      </g>
     </g>
     <g id="text_2">
      <!-- $\mathdefault{5}$ -->
      <g transform="translate(118.616227 261.038748) scale(0.1 -0.1)">
       <defs>
        <path id="CMR17-35" d="M 730 3750 
C 794 3724 1056 3641 1325 3641 
C 1920 3641 2246 3961 2432 4140 
C 2432 4191 2432 4224 2394 4224 
C 2387 4224 2374 4224 2323 4198 
C 2099 4102 1837 4032 1517 4032 
C 1325 4032 1037 4055 723 4191 
C 653 4224 640 4224 634 4224 
C 602 4224 595 4217 595 4090 
L 595 2231 
C 595 2113 595 2080 659 2080 
C 691 2080 704 2093 736 2139 
C 941 2435 1222 2560 1542 2560 
C 1766 2560 2246 2415 2246 1293 
C 2246 1087 2246 716 2054 422 
C 1894 159 1645 25 1370 25 
C 947 25 518 319 403 812 
C 429 806 480 793 506 793 
C 589 793 749 838 749 1036 
C 749 1209 627 1280 506 1280 
C 358 1280 262 1190 262 1011 
C 262 454 704 -128 1382 -128 
C 2042 -128 2669 441 2669 1267 
C 2669 2054 2170 2662 1549 2662 
C 1222 2662 947 2540 730 2304 
L 730 3750 
z
" transform="scale(0.015625)"/>
       </defs>
       <use xlink:href="#CMR17-35" transform="scale(0.996264)"/>
      </g>
     </g>
    </g>
    <g id="xtick_3">
     <g id="line2d_7">
      <path d="M 198.110895 247.12025 
L 198.110895 10.7 
" clip-path="url(#pc8e96cc104)" style="fill: none; stroke-dasharray: 0.35,0.5775; stroke-dashoffset: 0; stroke: #b0b0b0; stroke-width: 0.35"/>
     </g>
     <g id="line2d_8">
      <g>
       <use xlink:href="#med6f9e374c" x="198.110895" y="247.12025" style="stroke: #000000; stroke-width: 0.8"/>
      </g>
     </g>
     <g id="line2d_9">
      <g>
       <use xlink:href="#md120f9b746" x="198.110895" y="10.7" style="stroke: #000000; stroke-width: 0.8"/>
      </g>
     </g>
     <g id="text_3">
      <!-- $\mathdefault{10}$ -->
      <g transform="translate(193.129559 261.038748) scale(0.1 -0.1)">
       <defs>
        <path id="CMR17-31" d="M 1702 4083 
C 1702 4217 1696 4224 1606 4224 
C 1357 3927 979 3833 621 3820 
C 602 3820 570 3820 563 3808 
C 557 3795 557 3782 557 3648 
C 755 3648 1088 3686 1344 3839 
L 1344 467 
C 1344 243 1331 166 781 166 
L 589 166 
L 589 0 
C 896 6 1216 12 1523 12 
C 1830 12 2150 6 2458 0 
L 2458 166 
L 2266 166 
C 1715 166 1702 236 1702 467 
L 1702 4083 
z
" transform="scale(0.015625)"/>
       </defs>
       <use xlink:href="#CMR17-31" transform="scale(0.996264)"/>
       <use xlink:href="#CMR17-30" transform="translate(45.690477 0) scale(0.996264)"/>
      </g>
     </g>
    </g>
    <g id="xtick_4">
     <g id="line2d_10">
      <path d="M 275.114895 247.12025 
L 275.114895 10.7 
" clip-path="url(#pc8e96cc104)" style="fill: none; stroke-dasharray: 0.35,0.5775; stroke-dashoffset: 0; stroke: #b0b0b0; stroke-width: 0.35"/>
     </g>
     <g id="line2d_11">
      <g>
       <use xlink:href="#med6f9e374c" x="275.114895" y="247.12025" style="stroke: #000000; stroke-width: 0.8"/>
      </g>
     </g>
     <g id="line2d_12">
      <g>
       <use xlink:href="#md120f9b746" x="275.114895" y="10.7" style="stroke: #000000; stroke-width: 0.8"/>
      </g>
     </g>
     <g id="text_4">
      <!-- $\mathdefault{15}$ -->
      <g transform="translate(270.133559 261.038748) scale(0.1 -0.1)">
       <use xlink:href="#CMR17-31" transform="scale(0.996264)"/>
       <use xlink:href="#CMR17-35" transform="translate(45.690477 0) scale(0.996264)"/>
      </g>
     </g>
    </g>
    <g id="xtick_5">
     <g id="line2d_13">
      <path d="M 352.118895 247.12025 
L 352.118895 10.7 
" clip-path="url(#pc8e96cc104)" style="fill: none; stroke-dasharray: 0.35,0.5775; stroke-dashoffset: 0; stroke: #b0b0b0; stroke-width: 0.35"/>
     </g>
     <g id="line2d_14">
      <g>
       <use xlink:href="#med6f9e374c" x="352.118895" y="247.12025" style="stroke: #000000; stroke-width: 0.8"/>
      </g>
     </g>
     <g id="line2d_15">
      <g>
       <use xlink:href="#md120f9b746" x="352.118895" y="10.7" style="stroke: #000000; stroke-width: 0.8"/>
      </g>
     </g>
     <g id="text_5">
      <!-- $\mathdefault{20}$ -->
      <g transform="translate(347.137559 261.038748) scale(0.1 -0.1)">
       <defs>
        <path id="CMR17-32" d="M 2669 990 
L 2554 990 
C 2490 537 2438 460 2413 422 
C 2381 371 1920 371 1830 371 
L 602 371 
C 832 620 1280 1073 1824 1596 
C 2214 1966 2669 2400 2669 3033 
C 2669 3788 2067 4224 1395 4224 
C 691 4224 262 3603 262 3027 
C 262 2777 448 2745 525 2745 
C 589 2745 781 2783 781 3007 
C 781 3206 614 3264 525 3264 
C 486 3264 448 3257 422 3244 
C 544 3788 915 4057 1306 4057 
C 1862 4057 2227 3616 2227 3033 
C 2227 2477 1901 1998 1536 1583 
L 262 147 
L 262 0 
L 2515 0 
L 2669 990 
z
" transform="scale(0.015625)"/>
       </defs>
       <use xlink:href="#CMR17-32" transform="scale(0.996264)"/>
       <use xlink:href="#CMR17-30" transform="translate(45.690477 0) scale(0.996264)"/>
      </g>
     </g>
    </g>
    <g id="xtick_6">
     <g id="line2d_16">
      <path d="M 429.122895 247.12025 
L 429.122895 10.7 
" clip-path="url(#pc8e96cc104)" style="fill: none; stroke-dasharray: 0.35,0.5775; stroke-dashoffset: 0; stroke: #b0b0b0; stroke-width: 0.35"/>
     </g>
     <g id="line2d_17">
      <g>
       <use xlink:href="#med6f9e374c" x="429.122895" y="247.12025" style="stroke: #000000; stroke-width: 0.8"/>
      </g>
     </g>
     <g id="line2d_18">
      <g>
       <use xlink:href="#md120f9b746" x="429.122895" y="10.7" style="stroke: #000000; stroke-width: 0.8"/>
      </g>
     </g>
     <g id="text_6">
      <!-- $\mathdefault{25}$ -->
      <g transform="translate(424.141559 261.038748) scale(0.1 -0.1)">
       <use xlink:href="#CMR17-32" transform="scale(0.996264)"/>
       <use xlink:href="#CMR17-35" transform="translate(45.690477 0) scale(0.996264)"/>
      </g>
     </g>
    </g>
    <g id="xtick_7">
     <g id="line2d_19">
      <path d="M 59.503695 247.12025 
L 59.503695 10.7 
" clip-path="url(#pc8e96cc104)" style="fill: none; stroke-dasharray: 0.35,0.5775; stroke-dashoffset: 0; stroke: #b0b0b0; stroke-width: 0.35"/>
     </g>
     <g id="line2d_20">
      <defs>
       <path id="m26ee1dd808" d="M 0 0 
L 0 2 
" style="stroke: #000000; stroke-width: 0.6"/>
      </defs>
      <g>
       <use xlink:href="#m26ee1dd808" x="59.503695" y="247.12025" style="stroke: #000000; stroke-width: 0.6"/>
      </g>
     </g>
     <g id="line2d_21">
      <defs>
       <path id="me71b46feb8" d="M 0 0 
L 0 -2 
" style="stroke: #000000; stroke-width: 0.6"/>
      </defs>
      <g>
       <use xlink:href="#me71b46feb8" x="59.503695" y="10.7" style="stroke: #000000; stroke-width: 0.6"/>
      </g>
     </g>
    </g>
    <g id="xtick_8">
     <g id="line2d_22">
      <path d="M 74.904495 247.12025 
L 74.904495 10.7 
" clip-path="url(#pc8e96cc104)" style="fill: none; stroke-dasharray: 0.35,0.5775; stroke-dashoffset: 0; stroke: #b0b0b0; stroke-width: 0.35"/>
     </g>
     <g id="line2d_23">
      <g>
       <use xlink:href="#m26ee1dd808" x="74.904495" y="247.12025" style="stroke: #000000; stroke-width: 0.6"/>
      </g>
     </g>
     <g id="line2d_24">
      <g>
       <use xlink:href="#me71b46feb8" x="74.904495" y="10.7" style="stroke: #000000; stroke-width: 0.6"/>
      </g>
     </g>
    </g>
    <g id="xtick_9">
     <g id="line2d_25">
      <path d="M 90.305295 247.12025 
L 90.305295 10.7 
" clip-path="url(#pc8e96cc104)" style="fill: none; stroke-dasharray: 0.35,0.5775; stroke-dashoffset: 0; stroke: #b0b0b0; stroke-width: 0.35"/>
     </g>
     <g id="line2d_26">
      <g>
       <use xlink:href="#m26ee1dd808" x="90.305295" y="247.12025" style="stroke: #000000; stroke-width: 0.6"/>
      </g>
     </g>
     <g id="line2d_27">
      <g>
       <use xlink:href="#me71b46feb8" x="90.305295" y="10.7" style="stroke: #000000; stroke-width: 0.6"/>
      </g>
     </g>
    </g>
    <g id="xtick_10">
     <g id="line2d_28">
      <path d="M 105.706095 247.12025 
L 105.706095 10.7 
" clip-path="url(#pc8e96cc104)" style="fill: none; stroke-dasharray: 0.35,0.5775; stroke-dashoffset: 0; stroke: #b0b0b0; stroke-width: 0.35"/>
     </g>
     <g id="line2d_29">
      <g>
       <use xlink:href="#m26ee1dd808" x="105.706095" y="247.12025" style="stroke: #000000; stroke-width: 0.6"/>
      </g>
     </g>
     <g id="line2d_30">
      <g>
       <use xlink:href="#me71b46feb8" x="105.706095" y="10.7" style="stroke: #000000; stroke-width: 0.6"/>
      </g>
     </g>
    </g>
    <g id="xtick_11">
     <g id="line2d_31">
      <path d="M 136.507695 247.12025 
L 136.507695 10.7 
" clip-path="url(#pc8e96cc104)" style="fill: none; stroke-dasharray: 0.35,0.5775; stroke-dashoffset: 0; stroke: #b0b0b0; stroke-width: 0.35"/>
     </g>
     <g id="line2d_32">
      <g>
       <use xlink:href="#m26ee1dd808" x="136.507695" y="247.12025" style="stroke: #000000; stroke-width: 0.6"/>
      </g>
     </g>
     <g id="line2d_33">
      <g>
       <use xlink:href="#me71b46feb8" x="136.507695" y="10.7" style="stroke: #000000; stroke-width: 0.6"/>
      </g>
     </g>
    </g>
    <g id="xtick_12">
     <g id="line2d_34">
      <path d="M 151.908495 247.12025 
L 151.908495 10.7 
" clip-path="url(#pc8e96cc104)" style="fill: none; stroke-dasharray: 0.35,0.5775; stroke-dashoffset: 0; stroke: #b0b0b0; stroke-width: 0.35"/>
     </g>
     <g id="line2d_35">
      <g>
       <use xlink:href="#m26ee1dd808" x="151.908495" y="247.12025" style="stroke: #000000; stroke-width: 0.6"/>
      </g>
     </g>
     <g id="line2d_36">
      <g>
       <use xlink:href="#me71b46feb8" x="151.908495" y="10.7" style="stroke: #000000; stroke-width: 0.6"/>
      </g>
     </g>
    </g>
    <g id="xtick_13">
     <g id="line2d_37">
      <path d="M 167.309295 247.12025 
L 167.309295 10.7 
" clip-path="url(#pc8e96cc104)" style="fill: none; stroke-dasharray: 0.35,0.5775; stroke-dashoffset: 0; stroke: #b0b0b0; stroke-width: 0.35"/>
     </g>
     <g id="line2d_38">
      <g>
       <use xlink:href="#m26ee1dd808" x="167.309295" y="247.12025" style="stroke: #000000; stroke-width: 0.6"/>
      </g>
     </g>
     <g id="line2d_39">
      <g>
       <use xlink:href="#me71b46feb8" x="167.309295" y="10.7" style="stroke: #000000; stroke-width: 0.6"/>
      </g>
     </g>
    </g>
    <g id="xtick_14">
     <g id="line2d_40">
      <path d="M 182.710095 247.12025 
L 182.710095 10.7 
" clip-path="url(#pc8e96cc104)" style="fill: none; stroke-dasharray: 0.35,0.5775; stroke-dashoffset: 0; stroke: #b0b0b0; stroke-width: 0.35"/>
     </g>
     <g id="line2d_41">
      <g>
       <use xlink:href="#m26ee1dd808" x="182.710095" y="247.12025" style="stroke: #000000; stroke-width: 0.6"/>
      </g>
     </g>
     <g id="line2d_42">
      <g>
       <use xlink:href="#me71b46feb8" x="182.710095" y="10.7" style="stroke: #000000; stroke-width: 0.6"/>
      </g>
     </g>
    </g>
    <g id="xtick_15">
     <g id="line2d_43">
      <path d="M 213.511695 247.12025 
L 213.511695 10.7 
" clip-path="url(#pc8e96cc104)" style="fill: none; stroke-dasharray: 0.35,0.5775; stroke-dashoffset: 0; stroke: #b0b0b0; stroke-width: 0.35"/>
     </g>
     <g id="line2d_44">
      <g>
       <use xlink:href="#m26ee1dd808" x="213.511695" y="247.12025" style="stroke: #000000; stroke-width: 0.6"/>
      </g>
     </g>
     <g id="line2d_45">
      <g>
       <use xlink:href="#me71b46feb8" x="213.511695" y="10.7" style="stroke: #000000; stroke-width: 0.6"/>
      </g>
     </g>
    </g>
    <g id="xtick_16">
     <g id="line2d_46">
      <path d="M 228.912495 247.12025 
L 228.912495 10.7 
" clip-path="url(#pc8e96cc104)" style="fill: none; stroke-dasharray: 0.35,0.5775; stroke-dashoffset: 0; stroke: #b0b0b0; stroke-width: 0.35"/>
     </g>
     <g id="line2d_47">
      <g>
       <use xlink:href="#m26ee1dd808" x="228.912495" y="247.12025" style="stroke: #000000; stroke-width: 0.6"/>
      </g>
     </g>
     <g id="line2d_48">
      <g>
       <use xlink:href="#me71b46feb8" x="228.912495" y="10.7" style="stroke: #000000; stroke-width: 0.6"/>
      </g>
     </g>
    </g>
    <g id="xtick_17">
     <g id="line2d_49">
      <path d="M 244.313295 247.12025 
L 244.313295 10.7 
" clip-path="url(#pc8e96cc104)" style="fill: none; stroke-dasharray: 0.35,0.5775; stroke-dashoffset: 0; stroke: #b0b0b0; stroke-width: 0.35"/>
     </g>
     <g id="line2d_50">
      <g>
       <use xlink:href="#m26ee1dd808" x="244.313295" y="247.12025" style="stroke: #000000; stroke-width: 0.6"/>
      </g>
     </g>
     <g id="line2d_51">
      <g>
       <use xlink:href="#me71b46feb8" x="244.313295" y="10.7" style="stroke: #000000; stroke-width: 0.6"/>
      </g>
     </g>
    </g>
    <g id="xtick_18">
     <g id="line2d_52">
      <path d="M 259.714095 247.12025 
L 259.714095 10.7 
" clip-path="url(#pc8e96cc104)" style="fill: none; stroke-dasharray: 0.35,0.5775; stroke-dashoffset: 0; stroke: #b0b0b0; stroke-width: 0.35"/>
     </g>
     <g id="line2d_53">
      <g>
       <use xlink:href="#m26ee1dd808" x="259.714095" y="247.12025" style="stroke: #000000; stroke-width: 0.6"/>
      </g>
     </g>
     <g id="line2d_54">
      <g>
       <use xlink:href="#me71b46feb8" x="259.714095" y="10.7" style="stroke: #000000; stroke-width: 0.6"/>
      </g>
     </g>
    </g>
    <g id="xtick_19">
     <g id="line2d_55">
      <path d="M 290.515695 247.12025 
L 290.515695 10.7 
" clip-path="url(#pc8e96cc104)" style="fill: none; stroke-dasharray: 0.35,0.5775; stroke-dashoffset: 0; stroke: #b0b0b0; stroke-width: 0.35"/>
     </g>
     <g id="line2d_56">
      <g>
       <use xlink:href="#m26ee1dd808" x="290.515695" y="247.12025" style="stroke: #000000; stroke-width: 0.6"/>
      </g>
     </g>
     <g id="line2d_57">
      <g>
       <use xlink:href="#me71b46feb8" x="290.515695" y="10.7" style="stroke: #000000; stroke-width: 0.6"/>
      </g>
     </g>
    </g>
    <g id="xtick_20">
     <g id="line2d_58">
      <path d="M 305.916495 247.12025 
L 305.916495 10.7 
" clip-path="url(#pc8e96cc104)" style="fill: none; stroke-dasharray: 0.35,0.5775; stroke-dashoffset: 0; stroke: #b0b0b0; stroke-width: 0.35"/>
     </g>
     <g id="line2d_59">
      <g>
       <use xlink:href="#m26ee1dd808" x="305.916495" y="247.12025" style="stroke: #000000; stroke-width: 0.6"/>
      </g>
     </g>
     <g id="line2d_60">
      <g>
       <use xlink:href="#me71b46feb8" x="305.916495" y="10.7" style="stroke: #000000; stroke-width: 0.6"/>
      </g>
     </g>
    </g>
    <g id="xtick_21">
     <g id="line2d_61">
      <path d="M 321.317295 247.12025 
L 321.317295 10.7 
" clip-path="url(#pc8e96cc104)" style="fill: none; stroke-dasharray: 0.35,0.5775; stroke-dashoffset: 0; stroke: #b0b0b0; stroke-width: 0.35"/>
     </g>
     <g id="line2d_62">
      <g>
       <use xlink:href="#m26ee1dd808" x="321.317295" y="247.12025" style="stroke: #000000; stroke-width: 0.6"/>
      </g>
     </g>
     <g id="line2d_63">
      <g>
       <use xlink:href="#me71b46feb8" x="321.317295" y="10.7" style="stroke: #000000; stroke-width: 0.6"/>
      </g>
     </g>
    </g>
    <g id="xtick_22">
     <g id="line2d_64">
      <path d="M 336.718095 247.12025 
L 336.718095 10.7 
" clip-path="url(#pc8e96cc104)" style="fill: none; stroke-dasharray: 0.35,0.5775; stroke-dashoffset: 0; stroke: #b0b0b0; stroke-width: 0.35"/>
     </g>
     <g id="line2d_65">
      <g>
       <use xlink:href="#m26ee1dd808" x="336.718095" y="247.12025" style="stroke: #000000; stroke-width: 0.6"/>
      </g>
     </g>
     <g id="line2d_66">
      <g>
       <use xlink:href="#me71b46feb8" x="336.718095" y="10.7" style="stroke: #000000; stroke-width: 0.6"/>
      </g>
     </g>
    </g>
    <g id="xtick_23">
     <g id="line2d_67">
      <path d="M 367.519695 247.12025 
L 367.519695 10.7 
" clip-path="url(#pc8e96cc104)" style="fill: none; stroke-dasharray: 0.35,0.5775; stroke-dashoffset: 0; stroke: #b0b0b0; stroke-width: 0.35"/>
     </g>
     <g id="line2d_68">
      <g>
       <use xlink:href="#m26ee1dd808" x="367.519695" y="247.12025" style="stroke: #000000; stroke-width: 0.6"/>
      </g>
     </g>
     <g id="line2d_69">
      <g>
       <use xlink:href="#me71b46feb8" x="367.519695" y="10.7" style="stroke: #000000; stroke-width: 0.6"/>
      </g>
     </g>
    </g>
    <g id="xtick_24">
     <g id="line2d_70">
      <path d="M 382.920495 247.12025 
L 382.920495 10.7 
" clip-path="url(#pc8e96cc104)" style="fill: none; stroke-dasharray: 0.35,0.5775; stroke-dashoffset: 0; stroke: #b0b0b0; stroke-width: 0.35"/>
     </g>
     <g id="line2d_71">
      <g>
       <use xlink:href="#m26ee1dd808" x="382.920495" y="247.12025" style="stroke: #000000; stroke-width: 0.6"/>
      </g>
     </g>
     <g id="line2d_72">
      <g>
       <use xlink:href="#me71b46feb8" x="382.920495" y="10.7" style="stroke: #000000; stroke-width: 0.6"/>
      </g>
     </g>
    </g>
    <g id="xtick_25">
     <g id="line2d_73">
      <path d="M 398.321295 247.12025 
L 398.321295 10.7 
" clip-path="url(#pc8e96cc104)" style="fill: none; stroke-dasharray: 0.35,0.5775; stroke-dashoffset: 0; stroke: #b0b0b0; stroke-width: 0.35"/>
     </g>
     <g id="line2d_74">
      <g>
       <use xlink:href="#m26ee1dd808" x="398.321295" y="247.12025" style="stroke: #000000; stroke-width: 0.6"/>
      </g>
     </g>
     <g id="line2d_75">
      <g>
       <use xlink:href="#me71b46feb8" x="398.321295" y="10.7" style="stroke: #000000; stroke-width: 0.6"/>
      </g>
     </g>
    </g>
    <g id="xtick_26">
     <g id="line2d_76">
      <path d="M 413.722095 247.12025 
L 413.722095 10.7 
" clip-path="url(#pc8e96cc104)" style="fill: none; stroke-dasharray: 0.35,0.5775; stroke-dashoffset: 0; stroke: #b0b0b0; stroke-width: 0.35"/>
     </g>
     <g id="line2d_77">
      <g>
       <use xlink:href="#m26ee1dd808" x="413.722095" y="247.12025" style="stroke: #000000; stroke-width: 0.6"/>
      </g>
     </g>
     <g id="line2d_78">
      <g>
       <use xlink:href="#me71b46feb8" x="413.722095" y="10.7" style="stroke: #000000; stroke-width: 0.6"/>
      </g>
     </g>
    </g>
    <g id="text_7">
     <!-- $x [cm]$ -->
     <g transform="translate(217.657785 278.931095) scale(0.16 -0.16)">
      <defs>
       <path id="CMMI12-78" d="M 3034 2624 
C 2829 2585 2752 2431 2752 2310 
C 2752 2156 2874 2105 2963 2105 
C 3155 2105 3290 2271 3290 2444 
C 3290 2694 2982 2816 2714 2816 
C 2323 2816 2106 2451 2048 2329 
C 1901 2790 1504 2816 1389 2816 
C 736 2816 390 1993 390 1849 
C 390 1823 416 1790 461 1790 
C 512 1790 525 1829 538 1855 
C 755 2572 1184 2687 1370 2687 
C 1658 2687 1715 2438 1715 2284 
C 1715 2143 1677 1993 1600 1678 
L 1382 778 
C 1286 390 1101 64 762 64 
C 730 64 570 64 435 126 
C 666 166 717 358 717 435 
C 717 563 621 640 499 640 
C 346 640 179 505 179 300 
C 179 57 480 -64 755 -64 
C 1062 -64 1280 153 1414 415 
C 1517 64 1837 -64 2074 -64 
C 2726 -64 3072 751 3072 896 
C 3072 929 3046 955 3008 955 
C 2950 955 2944 922 2925 870 
C 2752 300 2381 64 2093 64 
C 1869 64 1747 204 1747 467 
C 1747 607 1773 712 1875 1146 
L 2099 2039 
C 2195 2425 2413 2687 2707 2687 
C 2720 2687 2899 2687 3034 2624 
z
" transform="scale(0.015625)"/>
       <path id="CMR17-5b" d="M 1504 -1600 
L 1504 -1376 
L 902 -1376 
L 902 4575 
L 1504 4575 
L 1504 4800 
L 678 4800 
L 678 -1600 
L 1504 -1600 
z
" transform="scale(0.015625)"/>
       <path id="CMMI12-63" d="M 2502 2432 
C 2381 2432 2323 2432 2234 2355 
C 2195 2323 2125 2227 2125 2124 
C 2125 1996 2221 1919 2342 1919 
C 2496 1919 2669 2047 2669 2303 
C 2669 2591 2374 2816 1933 2816 
C 1094 2816 256 1932 256 1011 
C 256 446 602 -64 1254 -64 
C 2125 -64 2675 622 2675 706 
C 2675 745 2637 777 2611 777 
C 2592 777 2586 771 2528 712 
C 2118 161 1510 64 1267 64 
C 826 64 685 453 685 777 
C 685 1004 794 1634 1024 2073 
C 1190 2374 1536 2687 1939 2687 
C 2022 2687 2374 2676 2502 2432 
z
" transform="scale(0.015625)"/>
       <path id="CMMI12-6d" d="M 1318 1870 
C 1331 1909 1491 2228 1728 2432 
C 1894 2585 2112 2687 2362 2687 
C 2618 2687 2707 2496 2707 2241 
C 2707 2202 2707 2075 2630 1775 
L 2470 1117 
C 2419 925 2298 453 2285 383 
C 2259 287 2221 121 2221 95 
C 2221 6 2291 -64 2387 -64 
C 2579 -64 2611 83 2669 313 
L 3053 1838 
C 3066 1890 3398 2687 4102 2687 
C 4358 2687 4448 2496 4448 2241 
C 4448 1883 4198 1187 4058 804 
C 4000 651 3968 568 3968 453 
C 3968 166 4166 -64 4474 -64 
C 5069 -64 5293 874 5293 913 
C 5293 945 5267 970 5229 970 
C 5171 970 5165 951 5133 842 
C 4986 332 4749 64 4493 64 
C 4429 64 4326 70 4326 274 
C 4326 440 4403 645 4429 715 
C 4544 1021 4832 1775 4832 2145 
C 4832 2528 4608 2816 4122 2816 
C 3693 2816 3347 2573 3091 2196 
C 3072 2541 2861 2816 2381 2816 
C 1811 2816 1510 2413 1395 2253 
C 1376 2617 1114 2816 832 2816 
C 646 2816 499 2726 378 2483 
C 262 2253 173 1864 173 1838 
C 173 1813 198 1781 243 1781 
C 294 1781 301 1787 339 1934 
C 435 2311 557 2687 813 2687 
C 960 2687 1011 2585 1011 2394 
C 1011 2253 947 2004 902 1807 
L 723 1117 
C 698 996 627 708 595 593 
C 550 427 480 127 480 95 
C 480 6 550 -64 646 -64 
C 723 -64 813 -26 864 70 
C 877 102 934 325 966 453 
L 1107 1028 
L 1318 1870 
z
" transform="scale(0.015625)"/>
       <path id="CMR17-5d" d="M 915 4800 
L 90 4800 
L 90 4575 
L 691 4575 
L 691 -1376 
L 90 -1376 
L 90 -1600 
L 915 -1600 
L 915 4800 
z
" transform="scale(0.015625)"/>
      </defs>
      <use xlink:href="#CMMI12-78" transform="scale(0.996264)"/>
      <use xlink:href="#CMR17-5b" transform="translate(55.43406 0) scale(0.996264)"/>
      <use xlink:href="#CMMI12-63" transform="translate(80.305118 0) scale(0.996264)"/>
      <use xlink:href="#CMMI12-6d" transform="translate(122.288352 0) scale(0.996264)"/>
      <use xlink:href="#CMR17-5d" transform="translate(207.615576 0) scale(0.996264)"/>
     </g>
    </g>
   </g>
   <g id="matplotlib.axis_2">
    <g id="ytick_1">
     <g id="line2d_79">
      <path d="M 44.102895 247.12025 
L 429.122895 247.12025 
" clip-path="url(#pc8e96cc104)" style="fill: none; stroke-dasharray: 0.35,0.5775; stroke-dashoffset: 0; stroke: #b0b0b0; stroke-width: 0.35"/>
     </g>
     <g id="line2d_80">
      <defs>
       <path id="ma89456c75e" d="M 0 0 
L -3.5 0 
" style="stroke: #000000; stroke-width: 0.8"/>
      </defs>
      <g>
       <use xlink:href="#ma89456c75e" x="44.102895" y="247.12025" style="stroke: #000000; stroke-width: 0.8"/>
      </g>
     </g>
     <g id="line2d_81">
      <defs>
       <path id="ma5dccfb969" d="M 0 0 
L 3.5 0 
" style="stroke: #000000; stroke-width: 0.8"/>
      </defs>
      <g>
       <use xlink:href="#ma5dccfb969" x="429.122895" y="247.12025" style="stroke: #000000; stroke-width: 0.8"/>
      </g>
     </g>
     <g id="text_8">
      <!-- $\mathdefault{0}$ -->
      <g transform="translate(32.121559 250.579499) scale(0.1 -0.1)">
       <use xlink:href="#CMR17-30" transform="scale(0.996264)"/>
      </g>
     </g>
    </g>
    <g id="ytick_2">
     <g id="line2d_82">
      <path d="M 44.102895 204.13475 
L 429.122895 204.13475 
" clip-path="url(#pc8e96cc104)" style="fill: none; stroke-dasharray: 0.35,0.5775; stroke-dashoffset: 0; stroke: #b0b0b0; stroke-width: 0.35"/>
     </g>
     <g id="line2d_83">
      <g>
       <use xlink:href="#ma89456c75e" x="44.102895" y="204.13475" style="stroke: #000000; stroke-width: 0.8"/>
      </g>
     </g>
     <g id="line2d_84">
      <g>
       <use xlink:href="#ma5dccfb969" x="429.122895" y="204.13475" style="stroke: #000000; stroke-width: 0.8"/>
      </g>
     </g>
     <g id="text_9">
      <!-- $\mathdefault{2}$ -->
      <g transform="translate(32.121559 207.593999) scale(0.1 -0.1)">
       <use xlink:href="#CMR17-32" transform="scale(0.996264)"/>
      </g>
     </g>
    </g>
    <g id="ytick_3">
     <g id="line2d_85">
      <path d="M 44.102895 161.14925 
L 429.122895 161.14925 
" clip-path="url(#pc8e96cc104)" style="fill: none; stroke-dasharray: 0.35,0.5775; stroke-dashoffset: 0; stroke: #b0b0b0; stroke-width: 0.35"/>
     </g>
     <g id="line2d_86">
      <g>
       <use xlink:href="#ma89456c75e" x="44.102895" y="161.14925" style="stroke: #000000; stroke-width: 0.8"/>
      </g>
     </g>
     <g id="line2d_87">
      <g>
       <use xlink:href="#ma5dccfb969" x="429.122895" y="161.14925" style="stroke: #000000; stroke-width: 0.8"/>
      </g>
     </g>
     <g id="text_10">
      <!-- $\mathdefault{4}$ -->
      <g transform="translate(32.121559 164.608499) scale(0.1 -0.1)">
       <defs>
        <path id="CMR17-34" d="M 2150 4147 
C 2150 4281 2144 4288 2029 4288 
L 128 1254 
L 128 1088 
L 1779 1088 
L 1779 460 
C 1779 230 1766 166 1318 166 
L 1197 166 
L 1197 0 
C 1402 12 1747 12 1965 12 
C 2182 12 2528 12 2733 0 
L 2733 166 
L 2611 166 
C 2163 166 2150 230 2150 460 
L 2150 1088 
L 2803 1088 
L 2803 1254 
L 2150 1254 
L 2150 4147 
z
M 1798 3723 
L 1798 1254 
L 256 1254 
L 1798 3723 
z
" transform="scale(0.015625)"/>
       </defs>
       <use xlink:href="#CMR17-34" transform="scale(0.996264)"/>
      </g>
     </g>
    </g>
    <g id="ytick_4">
     <g id="line2d_88">
      <path d="M 44.102895 118.16375 
L 429.122895 118.16375 
" clip-path="url(#pc8e96cc104)" style="fill: none; stroke-dasharray: 0.35,0.5775; stroke-dashoffset: 0; stroke: #b0b0b0; stroke-width: 0.35"/>
     </g>
     <g id="line2d_89">
      <g>
       <use xlink:href="#ma89456c75e" x="44.102895" y="118.16375" style="stroke: #000000; stroke-width: 0.8"/>
      </g>
     </g>
     <g id="line2d_90">
      <g>
       <use xlink:href="#ma5dccfb969" x="429.122895" y="118.16375" style="stroke: #000000; stroke-width: 0.8"/>
      </g>
     </g>
     <g id="text_11">
      <!-- $\mathdefault{6}$ -->
      <g transform="translate(32.121559 121.622999) scale(0.1 -0.1)">
       <defs>
        <path id="CMR17-36" d="M 678 2198 
C 678 3712 1395 4076 1811 4076 
C 1946 4076 2272 4049 2400 3782 
C 2298 3782 2106 3782 2106 3558 
C 2106 3385 2246 3328 2336 3328 
C 2394 3328 2566 3353 2566 3571 
C 2566 3987 2246 4224 1805 4224 
C 1043 4224 243 3411 243 2011 
C 243 257 966 -128 1478 -128 
C 2099 -128 2688 431 2688 1295 
C 2688 2101 2170 2688 1517 2688 
C 1126 2688 838 2430 678 1979 
L 678 2198 
z
M 1478 25 
C 691 25 691 1212 691 1450 
C 691 1914 909 2585 1504 2585 
C 1613 2585 1926 2585 2138 2140 
C 2253 1889 2253 1624 2253 1302 
C 2253 954 2253 696 2118 438 
C 1978 173 1773 25 1478 25 
z
" transform="scale(0.015625)"/>
       </defs>
       <use xlink:href="#CMR17-36" transform="scale(0.996264)"/>
      </g>
     </g>
    </g>
    <g id="ytick_5">
     <g id="line2d_91">
      <path d="M 44.102895 75.17825 
L 429.122895 75.17825 
" clip-path="url(#pc8e96cc104)" style="fill: none; stroke-dasharray: 0.35,0.5775; stroke-dashoffset: 0; stroke: #b0b0b0; stroke-width: 0.35"/>
     </g>
     <g id="line2d_92">
      <g>
       <use xlink:href="#ma89456c75e" x="44.102895" y="75.17825" style="stroke: #000000; stroke-width: 0.8"/>
      </g>
     </g>
     <g id="line2d_93">
      <g>
       <use xlink:href="#ma5dccfb969" x="429.122895" y="75.17825" style="stroke: #000000; stroke-width: 0.8"/>
      </g>
     </g>
     <g id="text_12">
      <!-- $\mathdefault{8}$ -->
      <g transform="translate(32.121559 78.637499) scale(0.1 -0.1)">
       <defs>
        <path id="CMR17-38" d="M 1741 2289 
C 2144 2494 2554 2803 2554 3298 
C 2554 3884 1990 4224 1472 4224 
C 890 4224 378 3800 378 3215 
C 378 3054 416 2777 666 2533 
C 730 2469 998 2276 1171 2154 
C 883 2006 211 1652 211 945 
C 211 282 838 -128 1459 -128 
C 2144 -128 2720 366 2720 1022 
C 2720 1607 2330 1877 2074 2051 
L 1741 2289 
z
M 902 2855 
C 851 2887 595 3086 595 3388 
C 595 3781 998 4076 1459 4076 
C 1965 4076 2336 3716 2336 3298 
C 2336 2700 1670 2359 1638 2359 
C 1632 2359 1626 2359 1574 2398 
L 902 2855 
z
M 2080 1536 
C 2176 1466 2483 1253 2483 861 
C 2483 385 2010 25 1472 25 
C 890 25 448 443 448 951 
C 448 1459 838 1884 1280 2083 
L 2080 1536 
z
" transform="scale(0.015625)"/>
       </defs>
       <use xlink:href="#CMR17-38" transform="scale(0.996264)"/>
      </g>
     </g>
    </g>
    <g id="ytick_6">
     <g id="line2d_94">
      <path d="M 44.102895 32.19275 
L 429.122895 32.19275 
" clip-path="url(#pc8e96cc104)" style="fill: none; stroke-dasharray: 0.35,0.5775; stroke-dashoffset: 0; stroke: #b0b0b0; stroke-width: 0.35"/>
     </g>
     <g id="line2d_95">
      <g>
       <use xlink:href="#ma89456c75e" x="44.102895" y="32.19275" style="stroke: #000000; stroke-width: 0.8"/>
      </g>
     </g>
     <g id="line2d_96">
      <g>
       <use xlink:href="#ma5dccfb969" x="429.122895" y="32.19275" style="stroke: #000000; stroke-width: 0.8"/>
      </g>
     </g>
     <g id="text_13">
      <!-- $\mathdefault{10}$ -->
      <g transform="translate(27.140224 35.651999) scale(0.1 -0.1)">
       <use xlink:href="#CMR17-31" transform="scale(0.996264)"/>
       <use xlink:href="#CMR17-30" transform="translate(45.690477 0) scale(0.996264)"/>
      </g>
     </g>
    </g>
    <g id="ytick_7">
     <g id="line2d_97">
      <path d="M 44.102895 236.373875 
L 429.122895 236.373875 
" clip-path="url(#pc8e96cc104)" style="fill: none; stroke-dasharray: 0.35,0.5775; stroke-dashoffset: 0; stroke: #b0b0b0; stroke-width: 0.35"/>
     </g>
     <g id="line2d_98">
      <defs>
       <path id="mdb70d6021f" d="M 0 0 
L -2 0 
" style="stroke: #000000; stroke-width: 0.6"/>
      </defs>
      <g>
       <use xlink:href="#mdb70d6021f" x="44.102895" y="236.373875" style="stroke: #000000; stroke-width: 0.6"/>
      </g>
     </g>
     <g id="line2d_99">
      <defs>
       <path id="m11b3042f26" d="M 0 0 
L 2 0 
" style="stroke: #000000; stroke-width: 0.6"/>
      </defs>
      <g>
       <use xlink:href="#m11b3042f26" x="429.122895" y="236.373875" style="stroke: #000000; stroke-width: 0.6"/>
      </g>
     </g>
    </g>
    <g id="ytick_8">
     <g id="line2d_100">
      <path d="M 44.102895 225.6275 
L 429.122895 225.6275 
" clip-path="url(#pc8e96cc104)" style="fill: none; stroke-dasharray: 0.35,0.5775; stroke-dashoffset: 0; stroke: #b0b0b0; stroke-width: 0.35"/>
     </g>
     <g id="line2d_101">
      <g>
       <use xlink:href="#mdb70d6021f" x="44.102895" y="225.6275" style="stroke: #000000; stroke-width: 0.6"/>
      </g>
     </g>
     <g id="line2d_102">
      <g>
       <use xlink:href="#m11b3042f26" x="429.122895" y="225.6275" style="stroke: #000000; stroke-width: 0.6"/>
      </g>
     </g>
    </g>
    <g id="ytick_9">
     <g id="line2d_103">
      <path d="M 44.102895 214.881125 
L 429.122895 214.881125 
" clip-path="url(#pc8e96cc104)" style="fill: none; stroke-dasharray: 0.35,0.5775; stroke-dashoffset: 0; stroke: #b0b0b0; stroke-width: 0.35"/>
     </g>
     <g id="line2d_104">
      <g>
       <use xlink:href="#mdb70d6021f" x="44.102895" y="214.881125" style="stroke: #000000; stroke-width: 0.6"/>
      </g>
     </g>
     <g id="line2d_105">
      <g>
       <use xlink:href="#m11b3042f26" x="429.122895" y="214.881125" style="stroke: #000000; stroke-width: 0.6"/>
      </g>
     </g>
    </g>
    <g id="ytick_10">
     <g id="line2d_106">
      <path d="M 44.102895 193.388375 
L 429.122895 193.388375 
" clip-path="url(#pc8e96cc104)" style="fill: none; stroke-dasharray: 0.35,0.5775; stroke-dashoffset: 0; stroke: #b0b0b0; stroke-width: 0.35"/>
     </g>
     <g id="line2d_107">
      <g>
       <use xlink:href="#mdb70d6021f" x="44.102895" y="193.388375" style="stroke: #000000; stroke-width: 0.6"/>
      </g>
     </g>
     <g id="line2d_108">
      <g>
       <use xlink:href="#m11b3042f26" x="429.122895" y="193.388375" style="stroke: #000000; stroke-width: 0.6"/>
      </g>
     </g>
    </g>
    <g id="ytick_11">
     <g id="line2d_109">
      <path d="M 44.102895 182.642 
L 429.122895 182.642 
" clip-path="url(#pc8e96cc104)" style="fill: none; stroke-dasharray: 0.35,0.5775; stroke-dashoffset: 0; stroke: #b0b0b0; stroke-width: 0.35"/>
     </g>
     <g id="line2d_110">
      <g>
       <use xlink:href="#mdb70d6021f" x="44.102895" y="182.642" style="stroke: #000000; stroke-width: 0.6"/>
      </g>
     </g>
     <g id="line2d_111">
      <g>
       <use xlink:href="#m11b3042f26" x="429.122895" y="182.642" style="stroke: #000000; stroke-width: 0.6"/>
      </g>
     </g>
    </g>
    <g id="ytick_12">
     <g id="line2d_112">
      <path d="M 44.102895 171.895625 
L 429.122895 171.895625 
" clip-path="url(#pc8e96cc104)" style="fill: none; stroke-dasharray: 0.35,0.5775; stroke-dashoffset: 0; stroke: #b0b0b0; stroke-width: 0.35"/>
     </g>
     <g id="line2d_113">
      <g>
       <use xlink:href="#mdb70d6021f" x="44.102895" y="171.895625" style="stroke: #000000; stroke-width: 0.6"/>
      </g>
     </g>
     <g id="line2d_114">
      <g>
       <use xlink:href="#m11b3042f26" x="429.122895" y="171.895625" style="stroke: #000000; stroke-width: 0.6"/>
      </g>
     </g>
    </g>
    <g id="ytick_13">
     <g id="line2d_115">
      <path d="M 44.102895 150.402875 
L 429.122895 150.402875 
" clip-path="url(#pc8e96cc104)" style="fill: none; stroke-dasharray: 0.35,0.5775; stroke-dashoffset: 0; stroke: #b0b0b0; stroke-width: 0.35"/>
     </g>
     <g id="line2d_116">
      <g>
       <use xlink:href="#mdb70d6021f" x="44.102895" y="150.402875" style="stroke: #000000; stroke-width: 0.6"/>
      </g>
     </g>
     <g id="line2d_117">
      <g>
       <use xlink:href="#m11b3042f26" x="429.122895" y="150.402875" style="stroke: #000000; stroke-width: 0.6"/>
      </g>
     </g>
    </g>
    <g id="ytick_14">
     <g id="line2d_118">
      <path d="M 44.102895 139.6565 
L 429.122895 139.6565 
" clip-path="url(#pc8e96cc104)" style="fill: none; stroke-dasharray: 0.35,0.5775; stroke-dashoffset: 0; stroke: #b0b0b0; stroke-width: 0.35"/>
     </g>
     <g id="line2d_119">
      <g>
       <use xlink:href="#mdb70d6021f" x="44.102895" y="139.6565" style="stroke: #000000; stroke-width: 0.6"/>
      </g>
     </g>
     <g id="line2d_120">
      <g>
       <use xlink:href="#m11b3042f26" x="429.122895" y="139.6565" style="stroke: #000000; stroke-width: 0.6"/>
      </g>
     </g>
    </g>
    <g id="ytick_15">
     <g id="line2d_121">
      <path d="M 44.102895 128.910125 
L 429.122895 128.910125 
" clip-path="url(#pc8e96cc104)" style="fill: none; stroke-dasharray: 0.35,0.5775; stroke-dashoffset: 0; stroke: #b0b0b0; stroke-width: 0.35"/>
     </g>
     <g id="line2d_122">
      <g>
       <use xlink:href="#mdb70d6021f" x="44.102895" y="128.910125" style="stroke: #000000; stroke-width: 0.6"/>
      </g>
     </g>
     <g id="line2d_123">
      <g>
       <use xlink:href="#m11b3042f26" x="429.122895" y="128.910125" style="stroke: #000000; stroke-width: 0.6"/>
      </g>
     </g>
    </g>
    <g id="ytick_16">
     <g id="line2d_124">
      <path d="M 44.102895 107.417375 
L 429.122895 107.417375 
" clip-path="url(#pc8e96cc104)" style="fill: none; stroke-dasharray: 0.35,0.5775; stroke-dashoffset: 0; stroke: #b0b0b0; stroke-width: 0.35"/>
     </g>
     <g id="line2d_125">
      <g>
       <use xlink:href="#mdb70d6021f" x="44.102895" y="107.417375" style="stroke: #000000; stroke-width: 0.6"/>
      </g>
     </g>
     <g id="line2d_126">
      <g>
       <use xlink:href="#m11b3042f26" x="429.122895" y="107.417375" style="stroke: #000000; stroke-width: 0.6"/>
      </g>
     </g>
    </g>
    <g id="ytick_17">
     <g id="line2d_127">
      <path d="M 44.102895 96.671 
L 429.122895 96.671 
" clip-path="url(#pc8e96cc104)" style="fill: none; stroke-dasharray: 0.35,0.5775; stroke-dashoffset: 0; stroke: #b0b0b0; stroke-width: 0.35"/>
     </g>
     <g id="line2d_128">
      <g>
       <use xlink:href="#mdb70d6021f" x="44.102895" y="96.671" style="stroke: #000000; stroke-width: 0.6"/>
      </g>
     </g>
     <g id="line2d_129">
      <g>
       <use xlink:href="#m11b3042f26" x="429.122895" y="96.671" style="stroke: #000000; stroke-width: 0.6"/>
      </g>
     </g>
    </g>
    <g id="ytick_18">
     <g id="line2d_130">
      <path d="M 44.102895 85.924625 
L 429.122895 85.924625 
" clip-path="url(#pc8e96cc104)" style="fill: none; stroke-dasharray: 0.35,0.5775; stroke-dashoffset: 0; stroke: #b0b0b0; stroke-width: 0.35"/>
     </g>
     <g id="line2d_131">
      <g>
       <use xlink:href="#mdb70d6021f" x="44.102895" y="85.924625" style="stroke: #000000; stroke-width: 0.6"/>
      </g>
     </g>
     <g id="line2d_132">
      <g>
       <use xlink:href="#m11b3042f26" x="429.122895" y="85.924625" style="stroke: #000000; stroke-width: 0.6"/>
      </g>
     </g>
    </g>
    <g id="ytick_19">
     <g id="line2d_133">
      <path d="M 44.102895 64.431875 
L 429.122895 64.431875 
" clip-path="url(#pc8e96cc104)" style="fill: none; stroke-dasharray: 0.35,0.5775; stroke-dashoffset: 0; stroke: #b0b0b0; stroke-width: 0.35"/>
     </g>
     <g id="line2d_134">
      <g>
       <use xlink:href="#mdb70d6021f" x="44.102895" y="64.431875" style="stroke: #000000; stroke-width: 0.6"/>
      </g>
     </g>
     <g id="line2d_135">
      <g>
       <use xlink:href="#m11b3042f26" x="429.122895" y="64.431875" style="stroke: #000000; stroke-width: 0.6"/>
      </g>
     </g>
    </g>
    <g id="ytick_20">
     <g id="line2d_136">
      <path d="M 44.102895 53.6855 
L 429.122895 53.6855 
" clip-path="url(#pc8e96cc104)" style="fill: none; stroke-dasharray: 0.35,0.5775; stroke-dashoffset: 0; stroke: #b0b0b0; stroke-width: 0.35"/>
     </g>
     <g id="line2d_137">
      <g>
       <use xlink:href="#mdb70d6021f" x="44.102895" y="53.6855" style="stroke: #000000; stroke-width: 0.6"/>
      </g>
     </g>
     <g id="line2d_138">
      <g>
       <use xlink:href="#m11b3042f26" x="429.122895" y="53.6855" style="stroke: #000000; stroke-width: 0.6"/>
      </g>
     </g>
    </g>
    <g id="ytick_21">
     <g id="line2d_139">
      <path d="M 44.102895 42.939125 
L 429.122895 42.939125 
" clip-path="url(#pc8e96cc104)" style="fill: none; stroke-dasharray: 0.35,0.5775; stroke-dashoffset: 0; stroke: #b0b0b0; stroke-width: 0.35"/>
     </g>
     <g id="line2d_140">
      <g>
       <use xlink:href="#mdb70d6021f" x="44.102895" y="42.939125" style="stroke: #000000; stroke-width: 0.6"/>
      </g>
     </g>
     <g id="line2d_141">
      <g>
       <use xlink:href="#m11b3042f26" x="429.122895" y="42.939125" style="stroke: #000000; stroke-width: 0.6"/>
      </g>
     </g>
    </g>
    <g id="ytick_22">
     <g id="line2d_142">
      <path d="M 44.102895 21.446375 
L 429.122895 21.446375 
" clip-path="url(#pc8e96cc104)" style="fill: none; stroke-dasharray: 0.35,0.5775; stroke-dashoffset: 0; stroke: #b0b0b0; stroke-width: 0.35"/>
     </g>
     <g id="line2d_143">
      <g>
       <use xlink:href="#mdb70d6021f" x="44.102895" y="21.446375" style="stroke: #000000; stroke-width: 0.6"/>
      </g>
     </g>
     <g id="line2d_144">
      <g>
       <use xlink:href="#m11b3042f26" x="429.122895" y="21.446375" style="stroke: #000000; stroke-width: 0.6"/>
      </g>
     </g>
    </g>
    <g id="ytick_23">
     <g id="line2d_145">
      <path d="M 44.102895 10.7 
L 429.122895 10.7 
" clip-path="url(#pc8e96cc104)" style="fill: none; stroke-dasharray: 0.35,0.5775; stroke-dashoffset: 0; stroke: #b0b0b0; stroke-width: 0.35"/>
     </g>
     <g id="line2d_146">
      <g>
       <use xlink:href="#mdb70d6021f" x="44.102895" y="10.7" style="stroke: #000000; stroke-width: 0.6"/>
      </g>
     </g>
     <g id="line2d_147">
      <g>
       <use xlink:href="#m11b3042f26" x="429.122895" y="10.7" style="stroke: #000000; stroke-width: 0.6"/>
      </g>
     </g>
    </g>
    <g id="text_14">
     <!-- $y [cm]$ -->
     <g transform="translate(19.155168 147.521614) rotate(-90) scale(0.16 -0.16)">
      <defs>
       <path id="CMMI12-79" d="M 1683 -673 
C 1510 -921 1261 -1152 947 -1152 
C 870 -1152 563 -1139 467 -826 
C 486 -833 518 -833 531 -833 
C 723 -833 851 -666 851 -519 
C 851 -372 730 -320 634 -320 
C 531 -320 307 -397 307 -711 
C 307 -1050 582 -1280 947 -1280 
C 1587 -1280 2234 -673 2413 -7 
L 3040 2483 
C 3046 2515 3059 2553 3059 2591 
C 3059 2687 2982 2752 2886 2752 
C 2829 2752 2694 2726 2643 2534 
L 2170 657 
C 2138 542 2138 530 2086 459 
C 1958 281 1747 64 1440 64 
C 1082 64 1050 415 1050 587 
C 1050 951 1222 1443 1395 1902 
C 1466 2087 1504 2177 1504 2305 
C 1504 2573 1312 2816 998 2816 
C 410 2816 173 1890 173 1838 
C 173 1813 198 1781 243 1781 
C 301 1781 307 1807 333 1896 
C 486 2432 730 2687 979 2687 
C 1037 2687 1146 2687 1146 2477 
C 1146 2311 1075 2126 979 1883 
C 666 1047 666 836 666 683 
C 666 76 1101 -64 1421 -64 
C 1606 -64 1837 -7 2061 230 
L 2067 223 
C 1971 -141 1907 -359 1683 -673 
z
" transform="scale(0.015625)"/>
      </defs>
      <use xlink:href="#CMMI12-79" transform="scale(0.996264)"/>
      <use xlink:href="#CMR17-5b" transform="translate(51.138781 0) scale(0.996264)"/>
      <use xlink:href="#CMMI12-63" transform="translate(76.009839 0) scale(0.996264)"/>
      <use xlink:href="#CMMI12-6d" transform="translate(117.993073 0) scale(0.996264)"/>
      <use xlink:href="#CMR17-5d" transform="translate(203.320297 0) scale(0.996264)"/>
     </g>
    </g>
   </g>
   <g id="line2d_148">
    <path d="M 44.102895 175.477706 
L 104.226138 175.370018 
L 113.090462 175.137672 
L 118.486138 174.794085 
L 122.340192 174.353497 
L 125.423435 173.806348 
L 128.121273 173.116642 
L 130.433705 172.307926 
L 132.360733 171.432046 
L 134.28776 170.323049 
L 136.214787 168.924363 
L 137.756408 167.552168 
L 139.29803 165.912752 
L 140.839651 163.963068 
L 142.381273 161.657044 
L 143.922895 158.947134 
L 145.464516 155.786691 
L 147.006138 152.133294 
L 148.54776 147.953018 
L 150.089381 143.225471 
L 152.016408 136.546406 
L 153.943435 129.062391 
L 156.255868 119.191225 
L 160.109922 101.50536 
L 163.963976 84.099271 
L 166.276408 74.621625 
L 168.203435 67.545805 
L 170.130462 61.309345 
L 172.057489 55.931065 
L 173.599111 52.226326 
L 175.140733 49.018393 
L 176.682354 46.265488 
L 178.223976 43.921223 
L 179.765597 41.938018 
L 181.307219 40.269572 
L 182.848841 38.872486 
L 184.775868 37.447873 
L 186.702895 36.317919 
L 188.629922 35.42524 
L 190.942354 34.600818 
L 193.640192 33.897573 
L 196.723435 33.339592 
L 200.577489 32.890233 
L 205.58776 32.557564 
L 212.525057 32.341401 
L 224.472624 32.225562 
L 250.680192 32.234209 
L 263.39857 32.403475 
L 269.950462 32.684837 
L 274.575327 33.087291 
L 278.043976 33.59129 
L 281.127219 34.269955 
L 283.439651 34.983343 
L 285.752084 35.935249 
L 287.679111 36.963976 
L 289.606138 38.263177 
L 291.14776 39.539678 
L 292.689381 41.067245 
L 294.231003 42.887435 
L 295.772624 45.045255 
L 297.314246 47.587898 
L 298.855868 50.562715 
L 300.397489 54.014277 
L 301.939111 57.980477 
L 303.480733 62.487759 
L 305.40776 68.89548 
L 307.334787 76.131464 
L 309.647219 85.76722 
L 312.730462 99.716231 
L 317.740733 122.573097 
L 320.053165 132.146571 
L 321.980192 139.318919 
L 323.907219 145.658251 
L 325.834246 151.138689 
L 327.375868 154.921063 
L 328.917489 158.201019 
L 330.459111 161.019291 
L 332.000733 163.421816 
L 333.542354 165.456175 
L 335.083976 167.168985 
L 336.625597 168.604154 
L 338.552624 170.068478 
L 340.479651 171.230561 
L 342.406678 172.149019 
L 344.719111 172.997559 
L 347.416949 173.721617 
L 350.500192 174.296272 
L 354.354246 174.759173 
L 359.364516 175.101962 
L 366.301814 175.324866 
L 378.249381 175.445324 
L 412.935868 175.477391 
L 429.122895 175.477706 
L 429.122895 175.477706 
" clip-path="url(#pc8e96cc104)" style="fill: none; stroke: #000000; stroke-width: 2; stroke-linecap: square"/>
   </g>
   <g id="patch_3">
    <path d="M 44.102895 247.12025 
L 44.102895 10.7 
" style="fill: none; stroke: #000000; stroke-width: 0.8; stroke-linejoin: miter; stroke-linecap: square"/>
   </g>
   <g id="patch_4">
    <path d="M 429.122895 247.12025 
L 429.122895 10.7 
" style="fill: none; stroke: #000000; stroke-width: 0.8; stroke-linejoin: miter; stroke-linecap: square"/>
   </g>
   <g id="patch_5">
    <path d="M 44.102895 247.12025 
L 429.122895 247.12025 
" style="fill: none; stroke: #000000; stroke-width: 0.8; stroke-linejoin: miter; stroke-linecap: square"/>
   </g>
   <g id="patch_6">
    <path d="M 44.102895 10.7 
L 429.122895 10.7 
" style="fill: none; stroke: #000000; stroke-width: 0.8; stroke-linejoin: miter; stroke-linecap: square"/>
   </g>
   <g id="legend_1">
    <g id="patch_7">
     <path d="M 331.561064 39.399491 
L 423.522895 39.399491 
Q 425.122895 39.399491 425.122895 37.799491 
L 425.122895 16.3 
Q 425.122895 14.7 423.522895 14.7 
L 331.561064 14.7 
Q 329.961064 14.7 329.961064 16.3 
L 329.961064 37.799491 
Q 329.961064 39.399491 331.561064 39.399491 
z
" style="fill: #ffffff; opacity: 0.8; stroke: #cccccc; stroke-linejoin: miter"/>
    </g>
    <g id="line2d_149">
     <path d="M 333.161064 20.7 
L 341.161064 20.7 
L 349.161064 20.7 
" style="fill: none; stroke: #000000; stroke-width: 2; stroke-linecap: square"/>
    </g>
    <g id="text_15">
     <!-- Perfil sin desgaste -->
     <g transform="translate(355.561064 23.5) scale(0.08 -0.08)">
      <defs>
       <path id="CMR17-50" d="M 1267 2048 
L 2291 2048 
C 3117 2048 3718 2583 3718 3187 
C 3718 3791 3130 4352 2291 4352 
L 333 4352 
L 333 4185 
C 774 4185 845 4185 845 3899 
L 845 453 
C 845 166 774 166 333 166 
L 333 0 
C 518 12 858 12 1056 12 
C 1254 12 1594 12 1779 0 
L 1779 166 
C 1338 166 1267 166 1267 453 
L 1267 2048 
z
M 1254 2182 
L 1254 3937 
C 1254 4153 1267 4185 1523 4185 
L 2170 4185 
C 2995 4185 3232 3715 3232 3187 
C 3232 2608 2950 2182 2170 2182 
L 1254 2182 
z
" transform="scale(0.015625)"/>
       <path id="CMR17-65" d="M 2438 1503 
C 2464 1529 2464 1542 2464 1606 
C 2464 2251 2118 2816 1389 2816 
C 710 2816 173 2175 173 1394 
C 173 554 781 -64 1459 -64 
C 2176 -64 2458 619 2458 755 
C 2458 800 2419 800 2406 800 
C 2362 800 2355 787 2330 709 
C 2189 270 1837 51 1504 51 
C 1229 51 954 206 781 490 
C 582 819 582 1200 582 1503 
L 2438 1503 
z
M 589 1600 
C 634 2511 1126 2713 1382 2713 
C 1818 2713 2112 2308 2118 1600 
L 589 1600 
z
" transform="scale(0.015625)"/>
       <path id="CMR17-72" d="M 960 1517 
C 960 2134 1222 2713 1702 2713 
C 1747 2713 1792 2707 1837 2687 
C 1837 2687 1696 2642 1696 2475 
C 1696 2321 1818 2257 1914 2257 
C 1990 2257 2131 2302 2131 2482 
C 2131 2687 1926 2816 1709 2816 
C 1222 2816 1011 2340 947 2115 
L 941 2115 
L 941 2816 
L 198 2745 
L 198 2578 
C 576 2578 634 2540 634 2231 
L 634 443 
C 634 198 608 166 198 166 
L 198 0 
C 352 12 646 12 813 12 
C 998 12 1325 12 1498 0 
L 1498 166 
C 1037 166 960 166 960 455 
L 960 1517 
z
" transform="scale(0.015625)"/>
       <path id="CMR17-c" d="M 2554 2816 
C 2400 2809 1926 2777 1805 2764 
C 1766 2758 1754 2758 1677 2758 
L 947 2758 
L 947 3517 
C 947 4127 1434 4416 1818 4416 
C 1939 4416 2214 4383 2355 4160 
C 2291 4160 2086 4160 2086 3935 
C 2086 3782 2189 3705 2317 3705 
C 2432 3705 2547 3769 2547 3942 
C 2547 4265 2240 4518 1843 4518 
C 1338 4518 634 4225 634 3517 
L 634 2758 
L 122 2758 
L 122 2591 
L 634 2591 
L 634 442 
C 634 198 608 166 198 166 
L 198 0 
C 352 12 634 12 794 12 
C 960 12 1242 12 1395 0 
L 1395 166 
C 986 166 960 192 960 442 
L 960 2591 
L 1901 2591 
C 2176 2591 2227 2534 2227 2251 
L 2227 442 
C 2227 198 2202 166 1792 166 
L 1792 0 
C 1946 12 2227 12 2387 12 
C 2554 12 2835 12 2989 0 
L 2989 166 
C 2579 166 2554 192 2554 442 
L 2554 2816 
z
" transform="scale(0.015625)"/>
       <path id="CMR17-6c" d="M 979 4416 
L 218 4345 
L 218 4179 
C 595 4179 653 4141 653 3835 
L 653 439 
C 653 198 627 166 218 166 
L 218 0 
C 371 12 653 12 813 12 
C 979 12 1261 12 1414 0 
L 1414 166 
C 1005 166 979 191 979 439 
L 979 4416 
z
" transform="scale(0.015625)"/>
       <path id="CMR17-73" d="M 1978 2688 
C 1978 2803 1971 2809 1933 2809 
C 1907 2809 1901 2803 1824 2707 
C 1805 2681 1747 2617 1728 2592 
C 1523 2809 1235 2816 1126 2816 
C 416 2816 160 2444 160 2073 
C 160 1497 813 1363 998 1324 
C 1402 1241 1542 1216 1677 1100 
C 1760 1024 1901 883 1901 652 
C 1901 384 1747 38 1158 38 
C 602 38 403 460 288 1024 
C 269 1113 269 1120 218 1120 
C 166 1120 160 1113 160 985 
L 160 64 
C 160 -52 166 -58 205 -58 
C 237 -58 243 -52 275 0 
C 314 57 410 211 448 275 
C 576 102 800 -64 1158 -64 
C 1792 -64 2131 281 2131 780 
C 2131 1107 1958 1280 1875 1356 
C 1683 1555 1459 1600 1190 1651 
C 838 1728 390 1817 390 2208 
C 390 2374 480 2726 1126 2726 
C 1811 2726 1850 2086 1862 1881 
C 1869 1849 1901 1843 1920 1843 
C 1978 1843 1978 1862 1978 1971 
L 1978 2688 
z
" transform="scale(0.015625)"/>
       <path id="CMR17-69" d="M 992 3961 
C 992 4102 877 4224 730 4224 
C 589 4224 467 4108 467 3961 
C 467 3820 582 3699 730 3699 
C 870 3699 992 3814 992 3961 
z
M 243 2745 
L 243 2579 
C 602 2579 653 2540 653 2231 
L 653 443 
C 653 198 627 166 218 166 
L 218 0 
C 371 12 646 12 806 12 
C 960 12 1222 12 1370 0 
L 1370 166 
C 992 166 979 205 979 436 
L 979 2816 
L 243 2745 
z
" transform="scale(0.015625)"/>
       <path id="CMR17-6e" d="M 2656 1954 
C 2656 2282 2592 2816 1837 2816 
C 1331 2816 1069 2424 973 2166 
L 966 2166 
L 966 2816 
L 211 2745 
L 211 2578 
C 589 2578 646 2540 646 2231 
L 646 443 
C 646 198 621 166 211 166 
L 211 0 
C 365 12 646 12 813 12 
C 979 12 1267 12 1421 0 
L 1421 166 
C 1011 166 986 192 986 443 
L 986 1678 
C 986 2269 1344 2713 1792 2713 
C 2266 2713 2317 2289 2317 1980 
L 2317 443 
C 2317 198 2291 166 1882 166 
L 1882 0 
C 2035 12 2317 12 2483 12 
C 2650 12 2938 12 3091 0 
L 3091 166 
C 2682 166 2656 192 2656 443 
L 2656 1954 
z
" transform="scale(0.015625)"/>
       <path id="CMR17-64" d="M 1869 4345 
L 1869 4179 
C 2246 4179 2304 4141 2304 3843 
L 2304 2371 
C 2278 2403 2016 2816 1498 2816 
C 845 2816 211 2228 211 1376 
C 211 529 806 -64 1434 -64 
C 1978 -64 2259 361 2291 406 
L 2291 -64 
L 3066 -13 
L 3066 154 
C 2688 154 2630 193 2630 503 
L 2630 4416 
L 1869 4345 
z
M 2291 762 
C 2291 568 2176 393 2029 264 
C 1811 70 1594 38 1472 38 
C 1286 38 621 135 621 1369 
C 621 2636 1363 2713 1530 2713 
C 1824 2713 2061 2545 2208 2313 
C 2291 2177 2291 2157 2291 2041 
L 2291 762 
z
" transform="scale(0.015625)"/>
       <path id="CMR17-67" d="M 710 1165 
C 832 1068 1043 960 1299 960 
C 1805 960 2240 1359 2240 1895 
C 2240 2063 2189 2321 1997 2521 
C 2176 2713 2438 2777 2586 2777 
C 2611 2777 2650 2777 2682 2758 
C 2656 2751 2598 2726 2598 2623 
C 2598 2540 2656 2483 2739 2483 
C 2835 2483 2886 2547 2886 2630 
C 2886 2751 2790 2880 2586 2880 
C 2330 2880 2106 2758 1926 2591 
C 1734 2764 1504 2828 1299 2828 
C 794 2828 358 2431 358 1895 
C 358 1527 570 1294 634 1230 
C 442 1004 442 742 442 710 
C 442 544 506 300 723 166 
C 390 82 128 -184 128 -517 
C 128 -996 736 -1344 1466 -1344 
C 2170 -1344 2803 -1009 2803 -510 
C 2803 384 1856 384 1363 384 
C 1216 384 954 384 922 390 
C 723 422 589 601 589 825 
C 589 883 589 1024 710 1165 
z
M 1299 1068 
C 736 1068 736 1766 736 1895 
C 736 2024 736 2719 1299 2719 
C 1862 2719 1862 2024 1862 1895 
C 1862 1766 1862 1068 1299 1068 
z
M 1466 -1236 
C 826 -1236 384 -883 384 -517 
C 384 -311 493 -118 634 -11 
C 794 102 858 102 1293 102 
C 1818 102 2547 102 2547 -517 
C 2547 -883 2106 -1236 1466 -1236 
z
" transform="scale(0.015625)"/>
       <path id="CMR17-61" d="M 2304 1656 
C 2304 2048 2304 2275 2035 2534 
C 1798 2751 1523 2816 1306 2816 
C 800 2816 435 2408 435 1977 
C 435 1740 627 1728 666 1728 
C 749 1728 896 1779 896 1958 
C 896 2118 774 2188 666 2188 
C 640 2188 608 2182 589 2176 
C 723 2594 1069 2713 1293 2713 
C 1613 2713 1965 2421 1965 1875 
L 1965 1632 
C 1587 1619 1133 1568 774 1373 
C 371 1147 256 822 256 576 
C 256 77 832 -64 1171 -64 
C 1523 -64 1850 135 1990 505 
C 2003 219 2182 -39 2464 -39 
C 2598 -39 2938 51 2938 563 
L 2938 926 
L 2822 926 
L 2822 557 
C 2822 161 2650 109 2566 109 
C 2304 109 2304 446 2304 732 
L 2304 1656 
z
M 1965 887 
C 1965 323 1568 38 1216 38 
C 896 38 646 278 646 576 
C 646 771 730 1114 1101 1322 
C 1408 1497 1760 1523 1965 1536 
L 1965 887 
z
" transform="scale(0.015625)"/>
       <path id="CMR17-74" d="M 966 2585 
L 1862 2585 
L 1862 2752 
L 966 2752 
L 966 3968 
L 851 3968 
C 838 3292 614 2700 70 2687 
L 70 2585 
L 627 2585 
L 627 778 
C 627 655 627 -64 1370 -64 
C 1747 -64 1965 308 1965 784 
L 1965 1151 
L 1850 1151 
L 1850 790 
C 1850 347 1677 51 1408 51 
C 1222 51 966 179 966 765 
L 966 2585 
z
" transform="scale(0.015625)"/>
      </defs>
      <use xlink:href="#CMR17-50" transform="scale(0.996264)"/>
      <use xlink:href="#CMR17-65" transform="translate(59.983847 0) scale(0.996264)"/>
      <use xlink:href="#CMR17-72" transform="translate(100.469507 0) scale(0.996264)"/>
      <use xlink:href="#CMR17-c" transform="translate(135.750275 0) scale(0.996264)"/>
      <use xlink:href="#CMR17-6c" transform="translate(185.492498 0) scale(0.996264)"/>
      <use xlink:href="#CMR17-73" transform="translate(240.439523 0) scale(0.996264)"/>
      <use xlink:href="#CMR17-69" transform="translate(276.240861 0) scale(0.996264)"/>
      <use xlink:href="#CMR17-6e" transform="translate(301.111919 0) scale(0.996264)"/>
      <use xlink:href="#CMR17-64" transform="translate(382.083255 0) scale(0.996264)"/>
      <use xlink:href="#CMR17-65" transform="translate(432.978625 0) scale(0.996264)"/>
      <use xlink:href="#CMR17-73" transform="translate(473.464286 0) scale(0.996264)"/>
      <use xlink:href="#CMR17-67" transform="translate(509.265623 0) scale(0.996264)"/>
      <use xlink:href="#CMR17-61" transform="translate(554.9561 0) scale(0.996264)"/>
      <use xlink:href="#CMR17-73" transform="translate(600.646577 0) scale(0.996264)"/>
      <use xlink:href="#CMR17-74" transform="translate(636.447915 0) scale(0.996264)"/>
      <use xlink:href="#CMR17-65" transform="translate(671.728683 0) scale(0.996264)"/>
     </g>
    </g>
    <g id="PathCollection_2">
     <g>
      <use xlink:href="#m73e9169946" x="341.161064" y="32.549746" style="fill: #ff0000; stroke: #ff0000"/>
     </g>
    </g>
    <g id="text_16">
     <!-- Mediciones -->
     <g transform="translate(355.561064 34.649746) scale(0.08 -0.08)">
      <defs>
       <path id="CMR17-4d" d="M 1338 4249 
C 1299 4345 1293 4352 1158 4352 
L 339 4352 
L 339 4185 
C 781 4185 851 4185 851 3898 
L 851 624 
C 851 465 851 166 339 166 
L 339 0 
C 486 12 755 12 915 12 
C 1075 12 1344 12 1491 0 
L 1491 166 
C 979 166 979 465 979 624 
L 979 4159 
L 986 4159 
L 2490 102 
C 2515 38 2528 0 2579 0 
C 2630 0 2643 38 2669 102 
L 4186 4191 
L 4192 4191 
L 4192 453 
C 4192 166 4122 166 3680 166 
L 3680 0 
C 3853 12 4198 12 4384 12 
C 4570 12 4922 12 5094 0 
L 5094 166 
C 4653 166 4582 166 4582 453 
L 4582 3898 
C 4582 4185 4653 4185 5094 4185 
L 5094 4352 
L 4282 4352 
C 4147 4352 4141 4345 4102 4249 
L 2720 516 
L 1338 4249 
z
" transform="scale(0.015625)"/>
       <path id="CMR17-63" d="M 2234 2240 
C 2112 2240 1933 2240 1933 2015 
C 1933 1836 2080 1785 2163 1785 
C 2208 1785 2394 1804 2394 2028 
C 2394 2476 1958 2816 1466 2816 
C 787 2816 211 2201 211 1379 
C 211 521 813 -64 1466 -64 
C 2259 -64 2458 676 2458 747 
C 2458 773 2451 792 2406 792 
C 2362 792 2355 786 2330 702 
C 2163 180 1798 51 1523 51 
C 1114 51 621 431 621 1385 
C 621 2358 1094 2700 1472 2700 
C 1722 2700 2093 2582 2234 2240 
z
" transform="scale(0.015625)"/>
       <path id="CMR17-6f" d="M 2758 1356 
C 2758 2176 2163 2816 1466 2816 
C 768 2816 173 2176 173 1356 
C 173 550 768 -64 1466 -64 
C 2163 -64 2758 550 2758 1356 
z
M 1466 51 
C 1165 51 909 230 762 480 
C 602 768 582 1126 582 1408 
C 582 1676 595 2009 762 2297 
C 890 2508 1139 2713 1466 2713 
C 1754 2713 1997 2553 2150 2329 
C 2349 2028 2349 1606 2349 1408 
C 2349 1158 2336 774 2163 467 
C 1984 172 1709 51 1466 51 
z
" transform="scale(0.015625)"/>
      </defs>
      <use xlink:href="#CMR17-4d" transform="scale(0.996264)"/>
      <use xlink:href="#CMR17-65" transform="translate(84.686941 0) scale(0.996264)"/>
      <use xlink:href="#CMR17-64" transform="translate(125.172601 0) scale(0.996264)"/>
      <use xlink:href="#CMR17-69" transform="translate(176.067971 0) scale(0.996264)"/>
      <use xlink:href="#CMR17-63" transform="translate(200.939029 0) scale(0.996264)"/>
      <use xlink:href="#CMR17-69" transform="translate(241.42469 0) scale(0.996264)"/>
      <use xlink:href="#CMR17-6f" transform="translate(266.295748 0) scale(0.996264)"/>
      <use xlink:href="#CMR17-6e" transform="translate(311.986225 0) scale(0.996264)"/>
      <use xlink:href="#CMR17-65" transform="translate(362.881595 0) scale(0.996264)"/>
      <use xlink:href="#CMR17-73" transform="translate(403.367256 0) scale(0.996264)"/>
     </g>
    </g>
   </g>
  </g>
 </g>
 <defs>
  <clipPath id="pc8e96cc104">
   <rect x="44.102895" y="10.7" width="385.02" height="236.42025"/>
  </clipPath>
 </defs>
</svg>
